<?xml version="1.0" encoding="UTF-8" standalone="no"?>
<!-- Created with Inkscape (http://www.inkscape.org/) -->

<svg
   xmlns:dc="http://purl.org/dc/elements/1.1/"
   xmlns:cc="http://creativecommons.org/ns#"
   xmlns:rdf="http://www.w3.org/1999/02/22-rdf-syntax-ns#"
   xmlns:svg="http://www.w3.org/2000/svg"
   xmlns="http://www.w3.org/2000/svg"
   xmlns:xlink="http://www.w3.org/1999/xlink"
   xmlns:sodipodi="http://sodipodi.sourceforge.net/DTD/sodipodi-0.dtd"
   xmlns:inkscape="http://www.inkscape.org/namespaces/inkscape"
   width="210mm"
   height="60mm"
   id="svg2"
   version="1.1"
   inkscape:version="0.47pre1 r21720"
   sodipodi:docname="cloud.svg"
   inkscape:output_extension="org.inkscape.output.svg.inkscape">
  <defs
     id="defs4">
    <linearGradient
       id="linearGradient3828">
      <stop
         style="stop-color:#b0dce6;stop-opacity:1;"
         offset="0"
         id="stop3830" />
      <stop
         style="stop-color:#85b1bb;stop-opacity:1;"
         offset="1"
         id="stop3832" />
    </linearGradient>
    <linearGradient
       id="linearGradient3820">
      <stop
         style="stop-color:#83bbcb;stop-opacity:1;"
         offset="0"
         id="stop3822" />
      <stop
         style="stop-color:#5ea0b3;stop-opacity:1;"
         offset="1"
         id="stop3824" />
    </linearGradient>
    <inkscape:perspective
       sodipodi:type="inkscape:persp3d"
       inkscape:vp_x="0 : 526.18109 : 1"
       inkscape:vp_y="0 : 1000 : 0"
       inkscape:vp_z="744.09448 : 526.18109 : 1"
       inkscape:persp3d-origin="372.04724 : 350.78739 : 1"
       id="perspective10" />
    <inkscape:perspective
       id="perspective3697"
       inkscape:persp3d-origin="0.5 : 0.33333333 : 1"
       inkscape:vp_z="1 : 0.5 : 1"
       inkscape:vp_y="0 : 1000 : 0"
       inkscape:vp_x="0 : 0.5 : 1"
       sodipodi:type="inkscape:persp3d" />
    <inkscape:perspective
       id="perspective3781"
       inkscape:persp3d-origin="0.5 : 0.33333333 : 1"
       inkscape:vp_z="1 : 0.5 : 1"
       inkscape:vp_y="0 : 1000 : 0"
       inkscape:vp_x="0 : 0.5 : 1"
       sodipodi:type="inkscape:persp3d" />
    <linearGradient
       inkscape:collect="always"
       xlink:href="#linearGradient3820"
       id="linearGradient3826"
       x1="356.18066"
       y1="-107.11263"
       x2="356.18066"
       y2="222.52017"
       gradientUnits="userSpaceOnUse" />
    <linearGradient
       inkscape:collect="always"
       xlink:href="#linearGradient3828"
       id="linearGradient3834"
       x1="423.26144"
       y1="64.138199"
       x2="423.26144"
       y2="237.0257"
       gradientUnits="userSpaceOnUse" />
  </defs>
  <sodipodi:namedview
     id="base"
     pagecolor="#ffffff"
     bordercolor="#666666"
     borderopacity="1.0"
     inkscape:pageopacity="0.0"
     inkscape:pageshadow="2"
     inkscape:zoom="0.9"
     inkscape:cx="322.54599"
     inkscape:cy="976.91017"
     inkscape:document-units="px"
     inkscape:current-layer="layer1"
     showgrid="false"
     inkscape:window-width="1280"
     inkscape:window-height="752"
     inkscape:window-x="0"
     inkscape:window-y="24"
     inkscape:window-maximized="1" />
  <metadata
     id="metadata7">
    <rdf:RDF>
      <cc:Work
         rdf:about="">
        <dc:format>image/svg+xml</dc:format>
        <dc:type
           rdf:resource="http://purl.org/dc/dcmitype/StillImage" />
        <dc:title></dc:title>
      </cc:Work>
    </rdf:RDF>
  </metadata>
  <g
     inkscape:label="Calque 1"
     inkscape:groupmode="layer"
     id="layer1">
    <rect
       style="fill:url(#linearGradient3826);fill-opacity:1.0;stroke:none"
       id="rect3797"
       width="812.8385"
       height="329.63281"
       x="-50.238586"
       y="-107.11263"
       inkscape:export-xdpi="97"
       inkscape:export-ydpi="97"
       inkscape:export-filename="/var/www/movim_multi/img/back.png" />
    <path
       style="fill:url(#linearGradient3834);fill-opacity:1.0;stroke:none"
       d="m 251.09827,64.138199 c -18.91002,0 -35.09058,11.66158 -41.75,28.1875 -1.97991,-0.25307 -3.98254,-0.40625 -6.03125,-0.40625 -15.17307,0 -28.67315,7.159995 -37.3125,18.281251 -6.95424,-6.51818 -16.31025,-10.499996 -26.59375,-10.499996 -6.41575,0 -12.44693,1.560956 -17.78125,4.312496 -8.87267,-13.942571 -24.468084,-23.218751 -42.218758,-23.218751 -6.134461,0 -12.007184,1.10363 -17.4375,3.125 -6.848957,-9.07927 -17.719668,-14.9375 -29.96875,-14.9375 -16.121603,0 -29.8762073,10.16595 -35.1874999,24.4375 -3.1700821,-0.85922 -6.495512,-1.3125 -9.9375001,-1.3125 -16.492923,0 -30.526736,10.517481 -35.75,25.218751 -24.489891,7.41266 -42.3125,30.15292 -42.3125,57.0625 0,32.92467 26.700333,59.625 59.625,59.625 240.907718,2.05407 551.203398,3.76866 786.531258,0 32.92467,0 59.625,-26.70033 59.625,-59.625 0,-29.56055 -21.52495,-54.07599 -49.75,-58.78125 -4.03091,-11.45679 -14.94619,-19.687506 -27.78125,-19.687506 -0.84696,0 -1.67117,0.0549 -2.5,0.125 -7.13938,-13.672065 -21.44555,-23.031245 -37.9375,-23.031245 -18.15237,0 -33.63102,11.3266 -39.84375,27.281251 -2.76749,-0.398886 -5.59083,-0.593746 -8.46875,-0.593746 -17.59032,0 -33.3656,7.709696 -44.15625,19.937496 -5.28512,-4.14463 -11.95024,-6.625 -19.1875,-6.625 -9.26412,0 -17.5819,4.0749 -23.28125,10.5 -6.11002,-3.02181 -12.97459,-4.76505 -20.21875,-4.90625 -1.66361,-17.47242 -16.37312,-31.125001 -34.28125,-31.125001 -3.53275,0 -6.94764,0.51202 -10.15625,1.5 -5.92374,-12.70606 -18.77507,-21.5 -33.71875,-21.5 -14.94368,0 -27.82626,8.79394 -33.75,21.5 -4.91378,-2.39079 -10.41808,-3.75 -16.25,-3.75 -13.13202,0 -24.68664,6.8224 -31.3125,17.093751 -6.522,-6.442796 -15.48304,-10.406251 -25.375,-10.406251 -5.64457,0 -10.99133,1.28453 -15.75,3.593745 -3.18881,-14.762765 -16.31445,-25.812495 -32.03125,-25.812495 -9.30625,0 -17.68978,3.86519 -23.65625,10.09375 -8.25241,-9.58303 -20.455,-15.65625 -34.09375,-15.65625 z"
       id="path3655"
       sodipodi:nodetypes="ccscscscscscsccscscscscsccscscscscscc" />
    <path
       style="fill:#cae1e9;fill-opacity:1;stroke:none"
       d="m 347.78125,99.40625 c -19.90952,0 -37.57875,9.56136 -48.71875,24.3125 C 291.96922,121.32397 284.37013,120 276.46875,120 c -22.11223,0 -41.83845,10.17901 -54.78125,26.09375 -5.97916,-2.57926 -12.54328,-4.03125 -19.46875,-4.03125 -1.49891,0 -3.00394,0.0877 -4.46875,0.21875 C 190.51825,129.02055 176.44933,120 160.28125,120 c -6.63428,0 -12.90038,1.51605 -18.5,4.21875 -7.77228,-3.65128 -16.43821,-5.6875 -25.59375,-5.6875 -18.378398,0 -34.84716,8.2203 -45.90625,21.1875 -2.787159,-0.38487 -5.638252,-0.59375 -8.53125,-0.59375 -8.577686,0 -16.732343,1.74616 -24.15625,4.90625 C 30.406837,130.62154 16.278527,121.46875 0,121.46875 c -16.419728,0 -30.654179,9.30554 -37.78125,22.90625 -3.012586,-0.53256 -6.115843,-0.84375 -9.28125,-0.84375 -29.238605,0 -52.9375,23.6989 -52.9375,52.9375 0,29.2386 23.698895,52.9375 52.9375,52.9375 384.6824,29.81706 626.26155,3.09927 812.65625,0 29.2386,0 52.96875,-23.6989 52.96875,-52.9375 0,-29.2386 -23.73015,-52.9375 -52.96875,-52.9375 -1.62516,0 -3.22467,0.0754 -4.8125,0.21875 -3.96543,-11.16236 -13.39067,-19.72092 -25.0625,-22.5 -4.78351,-7.79942 -13.39876,-13 -23.21875,-13 -9.36593,0 -17.6372,4.73306 -22.53125,11.9375 -4.08203,-1.98988 -8.65323,-3.125 -13.5,-3.125 -14.92387,0 -27.37034,10.58368 -30.25,24.65625 -3.02877,-0.73946 -6.21223,-1.125 -9.46875,-1.125 -14.75078,0 -27.591,8.05969 -34.4375,20 -6.67381,-2.46804 -13.90583,-3.8125 -21.4375,-3.8125 -0.73872,0 -1.45505,0.006 -2.1875,0.0312 -7.1963,-17.28569 -24.23292,-29.4375 -44.125,-29.4375 -17.91191,0 -33.50302,9.85542 -41.6875,24.4375 -8.38541,-4.43954 -17.76881,-7.25666 -27.71875,-8.03125 -5.5562,-14.74228 -19.78284,-25.25 -36.46875,-25.25 -1.64946,0 -3.27943,0.14482 -4.875,0.34375 -3.2878,-10.42693 -13.04924,-17.96875 -24.5625,-17.96875 -7.37316,0 -13.99553,3.09398 -18.6875,8.0625 -9.46902,-6.04134 -20.71642,-9.5625 -32.78125,-9.5625 z"
       id="path3737"
       sodipodi:nodetypes="ccscscscscscscssccssccscscscscsccscscc" />
  </g>
</svg>
