<?xml version="1.0" encoding="UTF-8" standalone="no"?>
<!-- Created with Inkscape (http://www.inkscape.org/) -->

<svg
   xmlns:dc="http://purl.org/dc/elements/1.1/"
   xmlns:cc="http://creativecommons.org/ns#"
   xmlns:rdf="http://www.w3.org/1999/02/22-rdf-syntax-ns#"
   xmlns:svg="http://www.w3.org/2000/svg"
   xmlns="http://www.w3.org/2000/svg"
   xmlns:sodipodi="http://sodipodi.sourceforge.net/DTD/sodipodi-0.dtd"
   xmlns:inkscape="http://www.inkscape.org/namespaces/inkscape"
   width="77.63456"
   height="87.356056"
   id="svg2"
   version="1.1"
   inkscape:version="0.48.0 r9654"
   sodipodi:docname="im-social.svg">
  <defs
     id="defs4" />
  <sodipodi:namedview
     id="base"
     pagecolor="#ffffff"
     bordercolor="#666666"
     borderopacity="1.0"
     inkscape:pageopacity="0.0"
     inkscape:pageshadow="2"
     inkscape:zoom="0.5"
     inkscape:cx="435.43726"
     inkscape:cy="99.413942"
     inkscape:document-units="px"
     inkscape:current-layer="layer1"
     showgrid="false"
     showguides="true"
     inkscape:guide-bbox="true"
     fit-margin-top="0"
     fit-margin-left="0"
     fit-margin-right="0"
     fit-margin-bottom="0"
     inkscape:window-width="1280"
     inkscape:window-height="723"
     inkscape:window-x="0"
     inkscape:window-y="24"
     inkscape:window-maximized="1"
     borderlayer="true">
    <sodipodi:guide
       orientation="0,1"
       position="913.83052,-419.0268"
       id="guide4847" />
  </sodipodi:namedview>
  <metadata
     id="metadata7">
    <rdf:RDF>
      <cc:Work
         rdf:about="">
        <dc:format>image/svg+xml</dc:format>
        <dc:type
           rdf:resource="http://purl.org/dc/dcmitype/StillImage" />
        <dc:title></dc:title>
      </cc:Work>
    </rdf:RDF>
  </metadata>
  <g
     inkscape:label="Calque 1"
     inkscape:groupmode="layer"
     id="layer1"
     transform="translate(-85.866624,197.23451)">
    <rect
       style="fill:#000000;fill-opacity:1;fill-rule:evenodd;stroke:none"
       id="rect4226"
       width="332"
       height="115"
       x="48.69714"
       y="-91.851646"
       ry="3.1539702" />
    <rect
       style="fill:#1a1a1a;fill-opacity:1;fill-rule:evenodd;stroke:#000000;stroke-width:8.39999962;stroke-miterlimit:4;stroke-opacity:1;stroke-dasharray:none"
       id="rect4036"
       width="992"
       height="808"
       x="-116"
       y="-89.604431"
       transform="translate(-940.30286,-977.24722)"
       ry="3.7573385" />
    <path
       style="fill:#ffffff;fill-opacity:1;stroke:none"
       d="m 508.875,0 c -9.6822,11.09031 -19.3803,22.19094 -29.0625,33.28125 -5.7688,1.59573 -12.19555,0.38969 -18.21875,0.9375 -5.9138,0.166 -11.8967,-0.02513 -17.75,0.4375 -3.3951,2.97412 -5.31525,10.31204 -1.90625,12.78125 2.5348,4.11281 5.61215,7.96839 10.15625,9.84375 3.2099,2.41988 6.97155,4.28919 11.09375,3.96875 2.8287,0.32676 5.63995,0.67451 8.46875,1 1.7603,2.53796 0.68405,6.55574 -2.34375,7.5 12.8421,-0.0837 25.68665,-1.77262 38.53125,-1.5 4.5284,-0.0202 3.90935,0.96637 0.28125,2.53125 -6.6854,3.41724 -14.583,0.55613 -21.75,2.75 -2.3506,1.13802 -13.80935,0.55354 -12.28125,4.46875 0.3494,3.45714 2.93615,12.41743 3.28125,15.875 -3.8075,-0.11555 -1.38525,-0.20163 -5.09375,-0.78125 -0.6573,-3.22958 -2.8501,-14.33696 -5.5,-16.03125 -2.0857,-0.47672 -2.5332,0.68291 -3.0625,-1.09375 0.5484,1.86621 1.1753,4.08044 0.9375,6.125 -0.3935,3.38388 -3.01,6.15792 -3.8125,9.46875 -0.8026,3.31153 -2.6942,7.26784 -0.9375,10.1875 0.7399,1.22963 2.40055,0.73556 3.96875,1.65625 2.6273,-0.9473 8.1184,-0.54373 8.6875,2.3125 2.1884,-1.01717 4.74735,0.27993 7.09375,-0.3125 4.6251,-0.40146 9.5787,-0.0587 13.375,2.875 3.0356,1.62189 6.05945,3.25073 9.09375,4.875 C 508.5541,101.1516 514.1588,88.63824 521.1875,77 c 2.7164,-3.01275 5.43975,-6.0185 8.15625,-9.03125 -6.3839,-8.63547 -16.2012,-13.60831 -24.3125,-20.4375 -1.0172,-1.10423 3.3053,-0.23399 4.625,-0.90625 4.0182,-1.06126 8.7851,-2.54234 12.5,0.125 10.4698,4.64318 21.16225,8.87348 31.46875,13.78125 6.5507,7.24316 13.11285,14.50025 19.65625,21.75 6.1109,-8.33681 14.76725,-10.71376 14.65625,-15.46875 0.037,-7.78087 0.2983,-15.66386 -0.6875,-23.375 -8.2568,-8.0483 -15.835,-16.98173 -24.5625,-24.5 C 554.1646,14.18406 546.05585,8.64359 537.21875,4.5625 527.76625,3.04439 518.3284,1.51331 508.875,0 z M 272.6875,43.4375 c -5.6356,0.68531 -11.6789,-0.15849 -17,1.78125 -16.6391,14.78159 -33.8289,29.08777 -50.125,44.15625 -0.8519,3.33535 -1.7312,8.30585 -6.0625,8.53125 -24.9161,6.03821 -49.8333,12.08899 -74.75,18.125 2.2208,15.94089 4.44685,31.87002 6.65625,47.8125 17.3137,-1.14584 34.6236,-2.29266 51.9375,-3.4375 1.9138,16.41998 3.8058,32.86482 5.75,49.28125 4.914,-0.3459 9.8354,-0.75674 14.75,-1.09375 2.8292,2.68269 6.02645,6.99034 3.59375,10.90625 -0.8565,3.73287 -5.4819,3.36012 -8.4375,3.21875 -7.9869,0.8656 -16.23525,0.75712 -24.09375,1.71875 -0.3691,3.73503 -4.60575,5.15853 -7.84375,4.75 -21.1465,1.96921 -42.45645,2.99332 -63.34375,6.71875 -4.682,2.92826 -8.33135,9.03013 -14.65625,8 -6.3233,-0.0846 -12.72425,0.43151 -18.65625,2.59375 -4.8928,0.77369 -9.2363,3.00091 -12.875,6.25 -10.1601,7.461 -18.88515,16.70041 -28.15625,25.1875 -1.5683,1.45059 0.11285,4.65138 -2.59375,4.46875 -4.2707,0.99677 -8.9615,0.77007 -13.0625,1.84375 -1.5701,2.97529 -3.5242,6.44854 -1.8125,9.78125 1.2116,3.95607 0.1485,8.25346 -0.5625,12.28125 -2.17,12.29233 -10.71105,23.24667 -11.21875,35.71875 -0.2969,7.29311 -0.57665,16.48654 4.84375,21.375 3.643,3.28549 10.62545,4.6341 14.59375,1.75 0.03488,-0.0254 0.06024,-0.0675 0.09375,-0.0937 l 0,106.90625 0,6.125 6.125,0 7.5,0 6.0625,-0.0625 0,-6.0625 0,-124.28125 0,-5.78125 c 9.618906,0.0115 19.169262,0.0199 28.78125,0.0312 -1.519342,0.70108 -2.928215,1.62313 -4.125,2.78125 -2.6965,2.60686 -4.375,6.48833 -4.375,10.25 0,3.78186 1.6421,7.5797 4.3125,10.25 l 0.0625,0.0937 0.0625,0.0625 c 1.2208,1.14227 2.7027,2.00488 4.25,2.6875 -0.3383,0.84738 -0.17115,1.21303 -0.71875,2.21875 -1.6646,3.09803 -3.6128,5.44589 -5.875,7.28125 l -13.375,10.875 17.21875,0 6.1875,0 2.1875,0 1.6875,-1.34375 c 4.4162,-3.52004 8.01735,-7.80263 10.78125,-12.6875 l 0.0625,0 c 2.8348,-5.07665 4.3122,-10.57199 4.3125,-16.1875 -3e-4,-4.90028 -1.6387,-9.8178 -5.1875,-13.09375 -1.437263,-1.32663 -3.109578,-2.40205 -4.90625,-3.1875 202.9501,0.23759 404.69465,0.45052 607.84375,0.78125 l 0,4.96875 0,124.28125 0,6.125 6.0625,0 7.5,0 6.1875,0.0625 -0.0625,-6.1875 0,-124.28125 0,-5.5 c 3.19856,-28.39489 6.978,-56.97205 5.1875,-85.59375 -2.7251,-27.28506 -10.014,-53.83694 -16.5625,-80.40625 -2.7816,-9.27003 -6.1757,-18.54568 -10.375,-27.28125 -7.1014,-9.32235 -14.1755,-18.72364 -23.125,-26.28125 -5.9266,-5.49667 -11.1898,-10.89201 -17.875,-14.75 -9.3386,-4.47248 -20.045,-6.66747 -29.375,-8.5 -12.8072,-2.50689 -30.5861,-8.44334 -43.5,-10.3125 l -2.3125,2.5 c -5.306,-1.07558 -3.78425,-0.01533 -8.34375,-3 -3.766,-3.91932 -8.23005,-8.68885 -10.03125,-13.28125 -3.0457,4.21777 -5.6629,8.9077 -10.125,11.78125 -0.6524,-5.16602 3.00035,-9.17335 4.40625,-13.78125 -1.7243,-3.52735 -2.0998,-8.20731 -4.625,-11.03125 -4.3895,5.92554 -9.49935,11.43069 -14.09375,17.28125 4.0268,7.8036 9.0406,15.21908 12.25,23.34375 -0.3373,6.39693 0.6979,12.96177 -0.5625,19.25 -4.1034,6.46907 -8.24255,12.85376 -12.46875,19.21875 13.7695,5.308 11.898,5.44035 20.625,11.5625 1.788,11.02528 9.95605,50.51665 8.53125,63.40625 -0.4353,13.3121 -0.8578,26.62608 -1.3125,39.9375 -5.4856,1.20213 -11.34665,0.86715 -16.59375,2.8125 -4.7713,4.41632 -11.6203,1.15505 -17.25,1.1875 -5.8146,-0.57261 -11.9084,-0.47255 -17.4375,-2.4375 -11.1246,-6.78183 -22.7947,-12.65629 -34.375,-18.6875 -9.461,0.21869 -19.0695,-0.81898 -28.4375,0.25 -12.3712,6.17393 -26.7934,8.48475 -38.125,16.65625 -2.4359,1.743 -3.4753,5.44165 -6.9375,5.46875 -2.5348,0.21503 -5.16775,-0.22427 -7.53125,1 0.4411,-0.93573 0.96935,-4.04097 -1.03125,-3.28125 -4.8073,0.53717 -10.01365,-0.21531 -14.59375,0.71875 -1.8986,2.991 -6.0789,1.71365 -8.9375,2 -1.6031,-0.50279 -2.68075,1.04297 -2.40625,2.5 -0.333,3.07342 0.0921,8.15498 -3.875,8.90625 -3.7916,0.0461 -7.6595,-0.4088 -11.5,-0.125 l -13.15625,0 c -0.7007,-10.41651 -1.1574,-21.08072 -2,-31.34375 -12.7649,-0.43724 -25.10585,-4.64477 -37.84375,-5.3125 -2.0361,0.67955 -2.3845,-1.00624 -2.4375,-2.6875 -0.3046,-3.10607 0.6584,-7.3642 -2.9375,-8.875 -3.4115,-2.46207 -7.84635,-1.06606 -11.71875,-1.9375 -2.2527,-0.0306 -4.9428,0.0787 -3.875,-2.75 1.3485,-5.63229 7.5961,-7.35305 11.6875,-10.5625 5.3801,-3.24667 12.0257,-4.09943 17.5,-6.78125 1.8469,-3.79363 4.1459,-8.01278 2.4375,-12.28125 -8.4703,-42.9969 -17.07775,-85.99166 -25.46875,-129 -0.1009,-3.85751 1.867,-7.91295 0.4375,-11.59375 -1.8623,-2.01341 -3.1932,-5.53574 -5.4375,-6.65625 z m -5.96875,19.59375 c 3.2234,-0.25147 3.33405,3.86613 3.34375,6.125 6.8586,42.05899 13.2692,84.2701 20,126.375 -2.7302,2.17418 -6.83735,-0.54667 -6.28125,-3.875 -1.1335,-10.39521 -3.33575,-20.69745 -4.71875,-31.09375 -5.0985,-32.47101 -10.1355,-64.93782 -15.25,-97.40625 0.9822,-0.009 1.94315,0.05964 2.90625,-0.125 z m -57,32.46875 c 3.3667,0.50902 2.8638,4.6426 3.25,7.09375 5.23,25.68824 9.6595,51.69955 14.8125,77.3125 10.1479,3.88887 19.79865,8.81503 29.78125,13.125 5.8923,2.50688 11.6241,5.71163 17.75,7.4375 4.9754,-0.0856 9.93185,-0.57092 14.90625,-0.6875 0.1842,3.70985 -3.7448,6.0997 -7.0625,5.03125 -6.062,-0.63355 -12.90805,0.99071 -18.15625,-2.9375 -13.0215,-6.26942 -26.0512,-12.49148 -39.0625,-18.78125 -0.06,-1.24798 -1.76,-0.35993 -2.4375,-1.0625 -0.3752,2.48425 -1.75722,-2.77142 -1.875,-3.4375 0.005,0.0136 0.0249,0.0119 0.0312,0.0312 -5.2299,-26.9838 -10.25505,-54.10702 -15.40625,-81.15625 0.9958,-0.84986 2.03345,-2.07799 3.46875,-1.96875 z m 360.6875,3.03125 0.46875,0.0625 0.40625,0.0625 c 1.7488,-0.137 4.44105,0.15628 4.15625,2.5625 -2.2989,9.74398 -6.02155,19.24926 -7.71875,29.09375 1.0091,10.05736 2.0175,20.09628 3,30.15625 -5.5367,0.50548 -11.0842,0.94871 -16.625,1.40625 2.0821,-3.56212 5.9886,-5.12206 9.5,-6.75 0.5293,-2.83758 -0.65415,-5.81708 -0.46875,-8.75 -0.3902,-7.56898 -2.46885,-15.45705 0.40625,-22.78125 2.2914,-8.35912 4.5856,-16.70287 6.875,-25.0625 z m -92.28125,18.0625 c 6.9192,4.96297 10.8319,4.17987 13.375,6.375 2.6242,1.90589 2.4173,6.97316 4.75,8.96875 2.0959,-2.27655 3.184,-5.37739 5.375,-7.625 0.3827,-1.39423 -1.8718,-2.19687 -2.25,-3.5 -1.5066,-2.22152 -3.5571,-4.68234 -6.625,-3.65625 -4.8068,0.0783 -10.2139,-0.22361 -14.625,-0.5625 z M 623,228.6875 c 4.0364,0.40193 3.9566,5.22746 5.5,8 0.3771,1.91541 1.64235,3.93232 3.84375,3.53125 3.7774,0.6514 7.50305,1.50347 11.28125,2.09375 3.6031,1.38818 3.3744,7.35229 -0.625,8.0625 -3.3913,1.22609 -7.18695,2.42125 -10.40625,3.5625 5.7183,5.3679 11.588,10.85104 17.3125,16.3125 -1.4362,2.317 -4.67815,2.42871 -6.40625,0.40625 -3.1308,-3.04514 -10.06984,-8.87375 -15.5,-13.375 -0.72511,-0.60107 -2.46958,-0.59142 -3.65625,-0.3125 -1.59327,0.37448 -3.0637,1.36877 -4.1875,2.53125 0,1.9421 1.65175,3.67962 1.84375,5.6875 0.31,3.19182 3.3544,6.10549 2.125,9.34375 1.8422,2.98722 -3.98985,5.33233 -4.84375,1.9375 0.1151,-1.56302 -1.8976,-1.05855 -2.625,-2.28125 -2.0457,-2.38875 -3.84115,-5.00865 -5.78125,-7.5 4.1735,13.7258 7.9738,27.6128 12.0625,41.40625 -3.6767,1.18764 -7.5845,-1.79971 -7.6875,-5.5625 -4.2821,-13.40912 -8.62415,-26.90325 -13.09375,-40.1875 -3.151,-0.42944 -6.67355,-3.21865 -9.59375,-0.9375 -2.228,0.98867 -5.0965,2.21167 -4.75,5.21875 -0.5686,5.24415 -0.9333,10.77959 -3.75,15.4375 -2.8761,-6.15009 -1.2726,-13.13941 -1.875,-19.5625 -1.4043,-1.86773 -4.1759,-2.84114 -6.25,-1.34375 -1.8344,1.10191 -6.1941,2.29143 -6.4375,-0.90625 0.6749,-2.39512 3.82125,-2.67737 5.46875,-4.28125 2.4751,-1.75895 6.1357,-1.85429 8.125,0.65625 1.3033,1.06758 3.1553,3.56547 4.875,1.65625 2.2862,-2.1062 5.4652,-4.19613 8.5625,-2.375 2.7768,0.65184 5.67735,2.3569 8.21875,2.78125 -0.1509,-2.04757 2.4993,-2.75183 3.6875,-1.71875 3.1615,-1.3389 3.95099,5.85521 6.5625,5 1.07991,-0.35364 0.57139,-2.17425 0.9375,-3.25 0.39506,-1.16083 0.50073,-2.54703 1.34375,-3.4375 4.93202,-5.20964 13.18403,-5.55178 19.59375,-8.90625 -3.5074,-0.89373 -7.67315,-0.84183 -10.78125,-2.28125 -2.4317,-4.42998 -4.92075,-8.84657 -7.34375,-13.28125 1.2939,-0.90332 2.568,-2.1195 4.25,-2.125 z m -514.90625,18.28125 c 0.31401,-0.0145 0.63478,-0.008 0.9375,0 1.45305,0.0406 2.74491,0.4002 3.71875,1.4375 3.3913,3.61228 3.7539,11.34057 0.25,14.84375 -6.9169,6.91555 -25.95365,8.70599 -29.34375,-0.46875 -2.674,-7.23676 10.03235,-12.84985 17.34375,-15.3125 0.1319,-0.0444 0.26745,0.0206 0.40625,0.0312 2.06888,0.15809 4.48943,-0.42982 6.6875,-0.53125 z M 76.875,248.75 c 0.2223,-0.007 0.447172,-0.0148 0.65625,0 1.003572,0.0712 1.818112,0.42487 2.25,1.28125 1.4924,2.9593 -3.1272,5.96738 -5.4375,8.34375 -8.9415,9.19738 -18.884,20.41874 -31.625,21.90625 -1.4833,0.17318 -3.60125,-0.23858 -4.15625,-1.625 -0.8404,-2.09962 1.48515,-4.34826 2.84375,-6.15625 5.626,-7.48662 13.3374,-13.3624 21.1875,-18.46875 2.9402,-1.91256 6.08575,-3.77976 9.53125,-4.4375 1.373859,-0.26229 3.1939,-0.7923 4.75,-0.84375 z m 291.8125,24.40625 c 17.1812,1.51249 34.44815,2.2958 51.65625,3.59375 1.646,0.56141 5.9023,-0.87249 4.625,1.96875 -0.7904,3.39619 -4.85575,3.77587 -7.65625,2.96875 -17.1181,-1.08141 -34.254,-1.93604 -51.375,-3 -0.9492,-2.25373 -0.0527,-5.45705 2.75,-5.53125 z M 17.53125,303.25 c 0.03579,0.005 0.0727,0.039 0.09375,0.0625 1.0761,2.2407 4.9577,2.32216 5.8125,4.65625 2.8173,7.69293 -3.53105,16.01895 -4.71875,24.125 -1.3225,9.02608 4.1128,21.13811 -2.6875,27.21875 -1.7496,1.56443 -5.14835,1.30742 -7.03125,-0.0937 -2.386,-1.77552 -2.252,-5.55795 -2.6875,-8.5 -0.7359,-4.97154 -0.6714,-10.11073 0.1875,-15.0625 1.9006,-10.95739 8.6755,-20.66116 10.875,-31.5625 0.054,-0.26735 -0.1467,-0.63768 0.0625,-0.8125 0.024,-0.0202 0.05796,-0.0358 0.09375,-0.0312 z m 557.3125,45.59375 c -3.3206,1.9e-4 -6.80705,1.43206 -9.15625,3.78125 l 0,0.0625 -0.0625,0 c -2.2419,2.33932 -3.65655,5.72153 -3.65625,8.96875 -3e-4,3.26109 1.38485,6.66138 3.65625,9.03125 l 0.0625,0.15625 0.125,0.0625 c 2.3696,2.27135 5.77005,3.56267 9.03125,3.5625 3.261,1.7e-4 6.7243,-1.28671 9.0625,-3.625 l 0.0625,-0.0937 0,-0.0625 c 2.2712,-2.36986 3.6247,-5.77022 3.625,-9.03125 -3e-4,-3.27787 -1.4057,-6.65058 -3.6875,-8.96875 -0.021,-0.013 -0.0807,0.013 -0.0937,0 -2.2842,-2.35977 -5.67855,-3.84355 -8.96875,-3.84375 z M 321.75,380 c -6.9745,1.1e-4 -13.59095,2.46381 -18.78125,7.03125 l -0.0625,0 c -5.3844,4.80226 -8.15625,11.78672 -8.15625,19.34375 0,4.24364 0.97475,8.35813 3.03125,11.9375 l 0,0.0625 0.0625,0 c 1.9135,3.26021 4.4319,6.06918 7.5,8.1875 l 0.0625,0.0625 0.0625,0 c 2.6602,1.73228 5.59475,3.33949 8.71875,4.78125 2.9146,1.34528 5.8346,2.61684 8.75,3.90625 2.6635,1.17816 5.03645,2.44526 7.09375,3.71875 l 0,0.0625 c 1.6258,0.98307 2.89465,2.14509 3.90625,3.71875 l 0,0.0625 c 0.822,1.24846 1.21875,2.55082 1.21875,4.53125 0,3.94506 -1.08985,6.37949 -3.90625,8.84375 -2.9948,2.56338 -5.93355,3.625 -9.71875,3.625 -3.5093,0 -6.0614,-0.93586 -8.6875,-3.21875 -0.021,-0.0194 -0.0405,-0.0743 -0.0625,-0.0937 -2.255,-2.0437 -3.88445,-5.17082 -4.53125,-10.4375 l -0.8125,-6.21875 -6.125,0.875 -7.4375,1.09375 -5.875,0.875 0.6875,5.875 c 0.5719,4.89278 1.87065,9.4085 3.96875,13.46875 2.0316,3.93246 4.66075,7.33325 7.84375,9.9375 2.9455,2.41001 6.157,4.30378 9.6875,5.59375 l 0.0937,0 0.0625,0 c 3.5359,1.22398 7.258,1.875 11.0625,1.875 8.6027,0 16.6269,-3.04266 23.125,-8.6875 6.7022,-5.88997 10.34345,-14.24636 10.34375,-23.40625 -3e-4,-4.08413 -0.7242,-7.97063 -2.25,-11.53125 -1.4511,-3.38575 -3.4562,-6.40479 -6.0625,-8.78125 -2.1803,-1.9879 -4.64575,-3.80666 -7.34375,-5.46875 -0.026,-0.0173 -0.0365,-0.0464 -0.0625,-0.0625 -2.6559,-1.66141 -5.4269,-3.05813 -8.25,-4.1875 -2.3468,-0.93863 -4.7029,-1.93689 -7,-3.03125 -0.03,-0.0151 -0.0325,-0.0478 -0.0625,-0.0625 -2.2322,-1.09238 -4.2387,-2.18799 -5.9375,-3.1875 -1.1731,-0.6899 -2.00655,-1.38438 -2.65625,-2.34375 -0.5167,-0.76248 -0.65625,-1.38928 -0.65625,-2.375 0,-2.66536 0.5716,-3.75921 1.8125,-4.90625 1.5506,-1.3858 2.97435,-1.96871 5.34375,-1.96875 1.8796,4e-5 3.4292,0.45673 5.3125,1.8125 l 0.0625,0.0625 c 1.6059,1.12421 2.75065,2.65452 3.59375,5.34375 l 1.875,6 5.9375,-2.09375 6.9375,-2.40625 5.8125,-1.96875 -2.03125,-5.65625 c -2.0551,-6.36366 -5.74975,-11.73762 -10.96875,-15.3125 l 0,0.0625 c -0.021,-0.0105 -0.0768,0.0105 -0.0937,0 C 333.2489,381.90786 327.6244,380.00011 321.75,380 z m 192.53125,0 c -8.183,1.1e-4 -16.012,2.32119 -22.875,6.875 -6.7694,4.47053 -12.1861,10.65322 -16,18.15625 l 0,0.0625 c -3.7563,7.51269 -5.65645,15.74917 -5.65625,24.4375 -2e-4,8.63908 1.90295,16.83717 5.65625,24.34375 l 0,0.0625 c 3.8109,7.49703 9.2483,13.69637 16,18.21875 6.8617,4.489 14.7079,6.8125 22.875,6.8125 7.8851,0 15.3795,-2.22591 22.0625,-6.53125 6.6658,-4.25351 12.00915,-10.05411 15.90625,-17.09375 l 2.90625,-5.1875 -5.125,-2.96875 -6.28125,-3.78125 -4.71875,-2.6875 -3.71875,5 c -2.444,4.3706 -5.43865,7.58362 -9.21875,9.96875 -3.7656,2.37586 -7.5406,3.4375 -11.8125,3.4375 -6.8166,0 -12.2637,-2.44495 -17.5625,-8.40625 -5.2573,-5.91416 -7.75,-12.74522 -7.75,-21.46875 0,-8.6609 2.5131,-15.32718 7.75,-21.125 5.2889,-5.85578 10.7194,-8.28118 17.5625,-8.28125 4.2511,7e-5 7.89785,1.09562 11.59375,3.5 l 0.0625,0 0,0.0625 c 3.8039,2.40031 6.8766,5.60088 9.375,9.9375 l 3.125,5.3125 5.3125,-3.09375 6.28125,-3.78125 5.125,-2.96875 -2.90625,-5.1875 c -3.8971,-7.03953 -9.24065,-12.80893 -15.90625,-17.0625 -6.6832,-4.30524 -14.1771,-6.56239 -22.0625,-6.5625 z m 119.34375,0 c -6.2317,1.1e-4 -12.37675,1.60025 -17.96875,4.65625 -5.7404,3.13723 -10.49955,7.85738 -14.34375,13.78125 l -3.3125,5.03125 5,3.3125 5.9375,3.90625 4.90625,3.3125 3.4375,-4.84375 c 2.3105,-3.28098 4.8087,-5.59114 7.625,-7.15625 0.021,-0.0105 0.0425,0.0105 0.0625,0 2.968,-1.60446 5.79445,-2.37494 8.65625,-2.375 5.0683,6e-5 9.08875,1.81572 13.28125,6.28125 2.8132,2.96467 4.41605,7.02092 5.40625,11.6875 -0.8285,0.0131 -1.94135,-0.0194 -2.65625,0 -0.054,10e-4 -0.1335,-10e-4 -0.1875,0 -2.0939,0.004 -4.73595,0.0849 -8.09375,0.25 -3.4649,0.17053 -6.37225,0.44694 -8.90625,0.8125 -0.039,0.007 -0.0881,-0.007 -0.125,0 -2.4586,0.30446 -5.2488,0.83331 -8.375,1.5 -0.05,0.0105 -0.0782,-0.0105 -0.125,0 l 0,0.0625 c -3.31,0.65788 -6.26385,1.4819 -8.84375,2.5625 -0.021,0.009 -0.0455,-0.009 -0.0625,0 -2.3933,0.97616 -4.80055,2.20622 -7.28125,3.71875 -2.7319,1.63919 -5.12945,3.57921 -7.03125,5.9375 l 0,0.0625 c -1.8065,2.258 -3.1766,4.86469 -4.25,7.75 l -0.0625,0 0,0.0625 c -1.0792,3.09362 -1.625,6.4163 -1.625,9.84375 -3e-4,3.50677 0.71575,7.02034 2.03125,10.34375 l 0,0.0625 c 1.3331,3.29768 3.26225,6.30536 5.71875,9.09375 2.7748,3.14999 6.41695,5.55757 10.59375,7.28125 l 0.0625,0 0.0937,0.0625 c 4.3628,1.7043 9.09705,2.5 14.21875,2.5 7.3937,0 14.54795,-2.23288 20.96875,-6.40625 2.1769,-1.40102 4.13075,-3.11326 6.09375,-4.78125 0.2867,1.8111 0.19385,3.86943 0.71875,5.53125 l 1.28125,4.25 4.53125,0 7.96875,0 8.375,-0.0625 -2.9687,-8.90625 C 673.72,467.89387 673,465.05601 673,460.8125 l 0,-37.15625 0,-0.0625 0,-0.0625 c -0.1234,-6.44788 -1.3343,-12.53213 -3.5625,-18.09375 l 0,-0.0625 c -2.1312,-5.42363 -5.06845,-10.12394 -8.84375,-13.84375 -0.021,-0.0131 -0.0495,0.0131 -0.0625,0 -3.5887,-3.57945 -7.68935,-6.47607 -12.28125,-8.4375 -0.045,-0.0194 -0.0792,-0.0427 -0.125,-0.0625 -4.5916,-2.0111 -9.504,-3.03114 -14.5,-3.03125 z m -495.84375,0.125 c -6.6992,1.3e-4 -12.8013,3.61427 -18.4375,9.1875 -0.7782,0.7697 -1.36465,1.69267 -2.09375,2.5 -0.3019,-1.97026 -0.22495,-4.00514 -0.78125,-5.9375 l -1.3125,-4.375 -4.5625,0 -8.03125,0 -9.125,0.125 3.71875,8.78125 c 0.6983,1.34079 1.40625,4.16255 1.40625,8.34375 l 0,73.21875 0,6.125 6.09375,0 7.46875,0 6.15625,0 0,-6.125 0,-42.25 c 0,-3.52402 0.9707,-7.85533 3.3125,-12.9375 2.3478,-5.09522 5.2237,-9.30068 8.625,-12.75 3.3765,-3.37645 5.7315,-4.18749 6.8125,-4.1875 2.0186,3e-5 3.185,0.43582 4.3125,1.28125 l 0.0625,0.0625 0.0625,0 c 1.3351,0.94444 2.25055,2.08458 2.96875,3.84375 0.9511,2.3302 1.67075,4.69581 2.09375,7.09375 0.4342,2.46074 0.625,5.03065 0.625,7.75 l 0,52.09375 0,6.125 6.125,0 7.5,0 6.0625,0 0,-6.125 0,-41.90625 c 0,-3.2003 1.0023,-7.50285 3.3125,-12.625 2.2857,-5.06847 5.1536,-9.30702 8.6875,-12.9375 l 0.0625,-0.0625 c 3.405,-3.54503 5.80535,-4.46872 7.21875,-4.46875 1.9433,4e-5 3.1029,0.42115 4.25,1.28125 1.3352,1.00156 2.3253,2.2569 3.0625,4.0625 l 0,0.0625 c 0.9877,2.3051 1.67715,4.64006 2.09375,7 0.4354,2.46752 0.65625,4.96724 0.65625,7.625 l 0,51.96875 0,6.125 6.0625,0 7.5,0 6.125,0 0,-6.125 0,-51.96875 c -3e-4,-6.56453 -0.8581,-12.64192 -2.6875,-18.21875 l 0,-0.0625 c -1.8448,-5.82835 -5.1127,-10.90896 -9.5625,-14.84375 -0.024,-0.0215 -0.0697,-0.0417 -0.0937,-0.0625 -4.6805,-4.21525 -10.7286,-6.40614 -17.1875,-6.40625 -6.681,1.3e-4 -12.87615,3.49989 -18.28125,8.96875 -2.0265,2.05039 -3.70845,4.43507 -5.40625,6.8125 -1.284,-2.466 -2.572,-4.93933 -4.375,-7 -0.021,-0.0151 0.021,-0.0484 0,-0.0625 l -0.0625,0 c -5.0821,-5.8141 -12.4506,-8.99989 -20.4375,-9 z m 274.4375,0 c -8.8111,8e-5 -17.23935,2.30086 -24.78125,6.6875 -0.021,0.0105 -0.0455,-0.0105 -0.0625,0 l 0,0.0625 c -7.454,4.3411 -13.5089,10.42154 -17.875,17.96875 l -0.0625,0 c -4.3465,7.55925 -6.53155,16.00851 -6.53125,24.875 -3e-4,13.46405 4.95635,25.582 14.40625,35.09375 9.4467,9.50903 21.53055,14.5 34.90625,14.5 6.6197,0 13.02865,-1.31601 19.09375,-3.90625 l 0.0625,0 c 5.9513,-2.60371 11.1889,-6.09622 15.625,-10.46875 l 0,-0.0625 0.0937,0 c 4.4586,-4.45878 7.9453,-9.79995 10.5,-15.84375 2.5876,-6.12255 3.9374,-12.59681 3.9375,-19.3125 -1e-4,-6.66748 -1.3529,-13.16555 -3.9375,-19.28125 -2.5547,-6.04368 -6.0415,-11.41615 -10.5,-15.875 -4.4489,-4.44842 -9.8259,-7.94299 -15.8125,-10.5 -6.0651,-2.59013 -12.4431,-3.93739 -19.0625,-3.9375 z M 565,381.5 l 0,6.0625 0,84.40625 0,6.125 6.0625,0 7.5,0 6.21875,-0.0625 -0.0625,-6.0625 0,-84.40625 0,-6.0625 -6.15625,0 -7.5,0 -6.0625,0 z m -152.65625,18.34375 c 8.4906,6e-5 15.1498,2.72765 21.125,8.75 6.04,6.04015 8.7497,12.69793 8.75,21.125 -3e-4,8.49076 -2.7039,15.1561 -8.75,21.25 -5.9752,6.02242 -12.6344,8.78125 -21.125,8.78125 -8.4907,0 -15.0909,-2.80932 -21.125,-8.84375 -5.9682,-6.07952 -8.6875,-12.7037 -8.6875,-21.1875 0,-8.43845 2.6988,-15.08878 8.6875,-21.125 6.0341,-6.03436 12.6343,-8.74994 21.125,-8.75 z m 240.75,35.34375 0.0312,0 c 0.073,-0.003 0.1766,0.003 0.25,0 l 0,7.8125 c -2.4905,4.16886 -5.9746,8.08666 -10.9375,11.625 -5.16,3.67886 -10.01055,5.25 -15.03125,5.25 -5.079,0 -7.91705,-1.20008 -9.90625,-3.15625 -2.4455,-2.40461 -3.1875,-4.26058 -3.1875,-6.5625 0,-1.40845 0.2629,-2.47874 0.6875,-3.5 l 0,-0.0625 c 0.5492,-1.16753 1.1915,-2.09769 1.875,-2.78125 l 0,-0.0625 0.0625,0 c 0.7025,-0.73295 1.7931,-1.62516 3.375,-2.4375 l 0.0625,0 c 1.8705,-0.98451 3.61915,-1.73278 5.21875,-2.28125 l 0.0625,0 0.0625,-0.0625 c 1.5321,-0.56908 3.5804,-1.11604 6.125,-1.625 2.7,-0.52936 5.04115,-0.86614 6.90625,-1.0625 l 0.0625,0 0.0625,0 c 1.8946,-0.24925 4.33035,-0.527 7.21875,-0.6875 l 0.0625,0 c 3.0057,-0.21858 5.3629,-0.3554 6.9375,-0.40625 z M 527.6875,507.03125 c -0.37528,-0.003 -0.74895,0.0148 -1.125,0.0312 -4.67975,0.20447 -9.35324,1.94085 -12.84375,4.9375 -7.0482,4.59258 -8.6618,13.26639 -9.5,21 -0.2431,6.00625 -6.16675,12.58544 -12.34375,9.09375 -2.4627,-4.73775 -1.4568,-11.03942 -5.4375,-15.25 -5.0555,-7.45221 -18.60935,-4.4633 -19.78125,4.53125 -1.1422,7.26641 5.19095,13.55765 12.09375,14.46875 5.7937,1.44546 7.57335,8.44785 5.53125,13.46875 -2.429,6.48033 -11.7611,4.10629 -14.4375,10.4375 -2.0738,5.63477 4.4512,11.28483 9.6875,11.6875 7.0159,2.00003 11.3068,-3.79553 11.1875,-10.1875 2.7679,-6.45902 12.4198,-1.22994 12.3125,4.65625 -0.2882,6.84929 1.7898,14.32819 8.9375,16.9375 10.7946,3.73719 23.8725,1.25076 21.9375,-13.34375 -4.1304,-7.42855 -13.48825,-8.39303 -20.09375,-12.6875 -5.7466,-3.62519 -4.83205,-12.08476 -2.34375,-17.40625 5.503,-7.56917 16.16685,-6.53384 23.34375,-11.65625 7.9749,-4.35124 12.20755,-15.28707 7.15625,-23.34375 -3.17857,-5.01763 -8.65205,-7.32433 -14.28125,-7.375 z M 673.375,524.25 c -1.0207,6e-5 -2.0283,0.43451 -2.75,1.15625 l -0.0312,0.0312 c -0.6892,0.71928 -1.09375,1.69104 -1.09375,2.6875 0,1.00657 0.39755,2.02348 1.09375,2.75 l 0.0312,0.0312 0.0312,0.0312 c 0.7266,0.69643 1.71215,1.09381 2.71875,1.09375 1.0065,6e-5 2.0377,-0.4128 2.75,-1.125 l 0.0312,-0.0312 c 0.6962,-0.72652 1.0625,-1.74343 1.0625,-2.75 0,-0.99657 -0.39775,-1.97496 -1.09375,-2.6875 -0.01,-0.006 -0.0253,0.006 -0.0312,0 -0.6987,-0.71858 -1.71635,-1.18744 -2.71875,-1.1875 z m -117.28125,0.0312 c -1.011,6e-5 -2.0354,0.44182 -2.75,1.15625 l 0,0.0312 c -0.6893,0.71935 -1.09375,1.69119 -1.09375,2.6875 0,1.00643 0.39745,2.02341 1.09375,2.75 l 0,0.0312 0.0312,0.0312 c 0.7193,0.68928 1.72235,1.09381 2.71875,1.09375 0.9964,6e-5 1.99945,-0.40429 2.71875,-1.09375 l 0,-0.0312 c 0.7219,-0.72173 1.15625,-1.7606 1.15625,-2.78125 0,-1.01097 -0.44155,-2.00411 -1.15625,-2.71875 -0.7146,-0.71461 -1.70775,-1.15619 -2.71875,-1.15625 z m 21.0625,12.75 c -2.1203,3e-5 -4.17995,0.5479 -6.09375,1.59375 -1.949,1.06521 -3.6092,2.67172 -4.9375,4.71875 l -0.78125,1.1875 1.21875,0.8125 2.125,1.40625 1.15625,0.78125 0.8125,-1.15625 c 0.8919,-1.26655 1.90225,-2.18899 3.03125,-2.8125 1.1728,-0.63813 2.30175,-0.93748 3.46875,-0.9375 2.0268,3e-5 3.72205,0.77274 5.34375,2.5 1.2896,1.35905 1.942,3.21307 2.25,5.4375 -0.6403,0.004 -1.3275,0.0181 -1.8125,0.0312 -0.01,2.3e-4 -0.0232,-2.3e-4 -0.0312,0 -0.738,6.5e-4 -1.68675,0.0339 -2.90625,0.0937 -1.2384,0.0609 -2.27455,0.15345 -3.15625,0.28125 -0.01,10e-4 -0.0232,-0.001 -0.0312,0 -0.8727,0.10753 -1.8617,0.28738 -3,0.53125 l 0,-0.0312 c -1.1776,0.23135 -2.1835,0.53876 -3.0625,0.90625 -0.01,0.003 -0.0232,-0.003 -0.0312,0 -0.819,0.3338 -1.66485,0.7842 -2.53125,1.3125 l 0,-0.0312 c -0.9212,0.55279 -1.6905,1.22876 -2.3125,2 -0.5925,0.74067 -1.0735,1.61556 -1.4375,2.59375 l 0,0.0312 c -0.3585,1.02769 -0.53125,2.11986 -0.53125,3.28125 0,1.16672 0.21445,2.32128 0.65625,3.4375 l 0,0.0312 c 0.4461,1.1034 1.1021,2.11424 1.9375,3.0625 0.9111,1.03435 2.11025,1.85106 3.53125,2.4375 l 0.0312,0 c 1.4722,0.57506 3.1071,0.84375 4.875,0.84375 2.5189,0 4.95035,-0.75369 7.15625,-2.1875 1.1289,-0.72657 2.13255,-1.56922 3.09375,-2.5 0.08,1.10683 0.1413,2.2183 0.4375,3.15625 l 0.34375,1.03125 1.0625,0 2.875,0 2.59375,0 -1.3125,-2.125 c -0.3254,-0.6118 -0.59375,-1.74395 -0.59375,-3.34375 l 0,-13.40625 0,-0.0312 c -0.043,-2.25177 -0.44765,-4.33281 -1.21875,-6.25 l 0.0312,0 c -0.7369,-1.88518 -1.7835,-3.45711 -3.0625,-4.71875 -0.01,-0.006 0.01,-0.0258 0,-0.0312 -1.2336,-1.2293 -2.64535,-2.20626 -4.21875,-2.875 -0.01,-0.004 -0.0222,0.004 -0.0312,0 -1.5685,-0.69012 -3.2314,-1.06247 -4.9375,-1.0625 z m 35.9375,0.0625 c -2.6429,3e-5 -5.22945,1.01158 -7.65625,2.875 -0.897,0.68074 -1.58555,1.4556 -2.28125,2.21875 -0.065,-1.20221 -0.1635,-2.39347 -0.5,-3.5625 l -0.3125,-1.0625 -1.09375,0 -2.875,0 -2.21875,0.0312 0.9375,2.09375 c 0.3357,0.64466 0.59375,1.76558 0.59375,3.34375 l 0,39.8125 0,1.46875 1.4375,0 2.71875,0 1.4375,0 0,-1.46875 0,-16.34375 c 0.6577,0.71364 1.291,1.43888 2.125,2.0625 l 0,0.0312 c 2.4308,1.77971 5.0275,2.71875 7.6875,2.71875 2.8083,0 5.4716,-0.80707 7.8125,-2.375 2.3271,-1.55872 4.16805,-3.6799 5.46875,-6.28125 l -0.0312,0 c 1.3203,-2.6189 2,-5.46028 2,-8.46875 0,-2.98997 -0.6784,-5.80643 -2,-8.40625 l 0.0312,0 c -1.3007,-2.60132 -3.14165,-4.72251 -5.46875,-6.28125 -2.341,-1.59011 -5.0004,-2.40622 -7.8125,-2.40625 z m 36.46875,0 c -2.6428,3e-5 -5.22945,1.0116 -7.65625,2.875 -0.9094,0.69019 -1.6101,1.4751 -2.3125,2.25 -0.063,-1.21276 -0.1606,-2.41467 -0.5,-3.59375 l -0.28125,-1.0625 -1.09375,0 -2.875,0 -2.5625,0.0312 1.28125,2.09375 c 0.3358,0.64466 0.5625,1.76558 0.5625,3.34375 l 0,39.8125 0,1.46875 1.46875,0 2.6875,0 1.4375,0 0,-1.46875 0,-16.34375 c 0.6577,0.71364 1.291,1.43888 2.125,2.0625 l 0,0.0312 0.0312,0 c 2.4308,1.77971 5.0276,2.71875 7.6875,2.71875 2.8083,0 5.44035,-0.80706 7.78125,-2.375 2.3271,-1.55872 4.16815,-3.6799 5.46875,-6.28125 1.3202,-2.61886 1.96875,-5.46024 1.96875,-8.46875 0,-2.99 -0.64725,-5.80648 -1.96875,-8.40625 -1.3006,-2.60132 -3.14165,-4.72251 -5.46875,-6.28125 -2.3411,-1.59012 -4.96915,-2.40622 -7.78125,-2.40625 z m -96.125,0.46875 0,31.8125 c 0,1.62156 -0.469,2.88209 -1.4375,4.03125 -0.9499,1.16278 -1.8674,1.625 -3.0625,1.625 l -1.4375,0 0,1.4375 0,2.3125 0,1.4375 1.4375,0 c 2.7642,-10e-6 5.2807,-1.149 7.1875,-3.25 0.01,-0.007 -0.01,-0.0245 0,-0.0312 1.8942,-2.08452 2.90625,-4.679 2.90625,-7.5625 l 0,-30.34375 0,-1.46875 -1.4375,0 c -1.3862,3e-5 -2.77075,5e-5 -4.15625,0 z m 117.15625,0 0,1.46875 0,30.40625 0,1.4375 1.4375,0 c 1.396,0.007 2.7916,0.0148 4.1875,0 -0.078,-10.60834 -0.0312,-21.23473 -0.0312,-31.84375 l 0,-1.46875 -1.4375,0 -2.71875,0 -1.4375,0 z m 8.5,0 1.78125,2.28125 9.15625,13.4375 -10.4375,15.3125 -1.5625,2.28125 2.75,0 3.15625,0 0.75,0 0.4375,-0.625 8.21875,-12 8.15625,12 0.4375,0.625 0.78125,0 3.09375,0 2.75,0 -1.53125,-2.28125 -10.4375,-15.3125 9.21875,-13.4375 1.5625,-2.28125 -2.75,0 -3.15625,0 -0.75,0 -0.4375,0.625 -7.0625,10.21875 -7,-10.1875 -0.4375,-0.65625 -0.75,0 -2.9375,0 -3,0 z m -66,5.125 c 2.637,2e-5 4.82185,1.00664 6.84375,3.28125 2.0106,2.26185 3,4.92224 3,8.21875 0,3.27489 -0.9822,5.94404 -3,8.25 -2.023,2.29401 -4.20985,3.31251 -6.84375,3.3125 -2.6791,10e-6 -4.84415,-1.02461 -6.84375,-3.3125 -1.995,-2.28247 -2.96875,-4.95076 -2.96875,-8.25 0,-3.2992 0.97675,-5.95763 2.96875,-8.21875 1.9984,-2.26847 4.16145,-3.28123 6.84375,-3.28125 z m 36.46875,0 c 2.6371,2e-5 4.7905,1.00664 6.8125,3.28125 2.0105,2.26185 3,4.92224 3,8.21875 0,3.27489 -0.9823,5.94404 -3,8.25 -2.0231,2.29401 -4.1786,3.31251 -6.8125,3.3125 -2.6791,10e-6 -4.8753,-1.02461 -6.875,-3.3125 -1.9949,-2.28247 -2.96875,-4.95076 -2.96875,-8.25 0,-3.2992 0.97685,-5.95763 2.96875,-8.21875 1.9985,-2.26847 4.1928,-3.28123 6.875,-3.28125 z m -64.53125,12.71875 0,3.84375 c -0.9592,1.65552 -2.3396,3.16923 -4.25,4.53125 -1.9602,1.39759 -3.86915,2.03125 -5.84375,2.03125 -1.9613,0 -3.21335,-0.47806 -4.09375,-1.34375 -0.9888,-0.97234 -1.375,-1.87009 -1.375,-2.90625 0,-0.60589 0.1129,-1.12329 0.3125,-1.59375 0.2324,-0.49945 0.4959,-0.9022 0.8125,-1.21875 l 0.0312,0 0,-0.0312 c 0.323,-0.3371 0.77885,-0.6778 1.40625,-1 l 0.0312,0 c 0.7028,-0.36988 1.35075,-0.6631 1.96875,-0.875 l 0.0312,0 c 0.5944,-0.22077 1.3837,-0.4378 2.3125,-0.625 0.012,-0.002 0.0193,0.002 0.0312,0 0.9733,-0.19005 1.83825,-0.33334 2.53125,-0.40625 l 0.0312,0 c 0.7085,-0.0932 1.60265,-0.16018 2.65625,-0.21875 l 0.0312,0 c 1.0882,-0.0791 1.9152,-0.13737 2.5,-0.15625 0.2362,-0.007 0.5963,-0.0239 0.875,-0.0312 z"
       transform="translate(-940.30286,-977.24722)"
       id="path3732"
       inkscape:connector-curvature="0" />
    <g
       transform="translate(910.74004,-718.33212)"
       style="font-size:61.39333725px;font-style:normal;font-variant:normal;font-weight:normal;font-stretch:normal;line-height:125%;letter-spacing:0px;word-spacing:0px;fill:#ffffff;fill-opacity:1;stroke:#ffffff;stroke-width:2.9000001;stroke-miterlimit:4;stroke-opacity:1;font-family:Sawasdee;-inkscape-font-specification:Sawasdee"
       id="text3758" />
    <path
       inkscape:export-ydpi="627.63342"
       inkscape:export-xdpi="627.63342"
       inkscape:export-filename="/home/julien/Bureau/i-m-social.png"
       inkscape:connector-curvature="0"
       style="fill:#000000;fill-opacity:1"
       d="m 131.29755,-411.43061 c -7.1477,-2.60931 -9.205,-10.08754 -8.9168,-16.93683 0.1073,-5.88619 -9.5642,-11.12752 -12.3321,-4.6685 0.1193,6.39197 -4.1615,12.19194 -11.1774,10.19191 -5.2363,-0.40267 -11.764299,-6.03494 -9.6905,-11.66971 2.6764,-6.33121 12.0115,-3.95455 14.4405,-10.43488 2.0421,-5.0209 0.2516,-12.03901 -5.5421,-13.48447 -6.9028,-0.9111 -13.220299,-7.2067 -12.078099,-14.47311 1.1719,-8.99455 14.728199,-11.97266 19.783699,-4.52045 3.9807,4.21058 2.9703,10.49839 5.433,15.23614 6.177,3.49169 12.1022,-3.07011 12.3453,-9.07636 0.8382,-7.73361 2.4344,-16.42069 9.4826,-21.01327 7.9783,-6.84949 22.2381,-7.09606 28.2656,2.41886 5.0513,8.05668 0.8222,18.99628 -7.1527,23.34752 -7.1769,5.12241 -17.8488,4.09052 -23.3518,11.65969 -2.4883,5.32149 -3.4078,13.7587 2.3388,17.38389 6.6055,4.29447 15.9783,5.27693 20.1087,12.70548 1.935,14.59451 -11.1621,17.07128 -21.9567,13.33409 z"
       id="path3754-1"
       sodipodi:nodetypes="cccccccccccccccccc" />
    <g
       transform="translate(1470.3768,-745.35892)"
       style="font-size:61.39333725px;font-style:normal;font-variant:normal;font-weight:normal;font-stretch:normal;line-height:125%;letter-spacing:0px;word-spacing:0px;fill:#000000;fill-opacity:1;stroke:#000000;stroke-width:2.9000001;stroke-miterlimit:4;stroke-opacity:1;font-family:Sawasdee;-inkscape-font-specification:Sawasdee"
       id="text3758-2">
      <path
         inkscape:connector-curvature="0"
         d="m -1296.1453,280.11891 2.6979,0 0,30.33694 c 0,2.57804 -0.8394,4.78636 -2.5181,6.62497 -1.6787,1.85858 -3.7172,2.78787 -6.1153,2.78788 l 0,-2.30825 c 1.6187,0 3.0077,-0.70946 4.1668,-2.12838 1.1791,-1.39894 1.7686,-3.05768 1.7687,-4.97622 l 0,-30.33694 m -1.1991,-10.85436 c 0,-0.65946 0.2298,-1.22903 0.6894,-1.7087 0.4797,-0.4796 1.0492,-0.71941 1.7087,-0.71945 0.6595,4e-5 1.2291,0.23985 1.7087,0.71945 0.4797,0.47967 0.7195,1.04924 0.7195,1.7087 0,0.67952 -0.2398,1.25908 -0.7195,1.73868 -0.4796,0.45968 -1.0492,0.68951 -1.7087,0.68947 -0.6595,4e-5 -1.229,-0.22979 -1.7087,-0.68947 -0.4596,-0.4796 -0.6894,-1.05916 -0.6894,-1.73868"
         id="path4577-5"
         sodipodi:nodetypes="ccsccccccccccscccc"
         style="fill:#000000;stroke:#000000;stroke-opacity:1" />
      <path
         inkscape:connector-curvature="0"
         d="m -1261.132,310.51581 -2.8778,0 c -0.3597,-1.13913 -0.5396,-2.47812 -0.5396,-4.01695 l 0,-2.3682 c -1.4389,1.99849 -3.1676,3.64723 -5.186,4.94624 -1.9985,1.29901 -4.1169,1.94852 -6.3552,1.94852 -1.6188,0 -3.0677,-0.24981 -4.3467,-0.74943 -1.259,-0.5196 -2.2583,-1.19909 -2.9977,-2.03845 -0.7394,-0.83936 -1.299,-1.72868 -1.6787,-2.66797 -0.3797,-0.95927 -0.5696,-1.92853 -0.5696,-2.90779 0,-1.01922 0.1499,-1.9585 0.4497,-2.81786 0.3197,-0.85934 0.7194,-1.58878 1.199,-2.18834 0.4997,-0.61951 1.1492,-1.16909 1.9486,-1.64874 0.8193,-0.49961 1.5987,-0.89931 2.3382,-1.19909 0.7594,-0.31974 1.6987,-0.58954 2.8178,-0.80939 1.1192,-0.2398 2.0884,-0.40967 2.9078,-0.50961 0.8194,-0.11989 1.8386,-0.20982 3.0577,-0.2698 1.2191,-0.0599 2.1783,-0.0899 2.8778,-0.0899 0.7195,-0.02 1.6288,-0.03 2.728,-0.03 l 0.8093,0 c -0.1,-3.29748 -1.0792,-5.92548 -2.9377,-7.88401 -1.8387,-1.95849 -3.967,-2.93774 -6.3852,-2.93777 -1.4189,3e-5 -2.8079,0.36975 -4.1668,1.10916 -1.339,0.73946 -2.5081,1.81864 -3.5073,3.23754 l -2.1284,-1.40893 c 1.219,-1.87855 2.6879,-3.28747 4.4066,-4.22679 1.7187,-0.93925 3.5173,-1.4089 5.3959,-1.40893 1.5189,3e-5 2.9777,0.3098 4.3767,0.9293 1.4189,0.59957 2.6879,1.45892 3.8071,2.57804 1.1191,1.09919 2.0184,2.51811 2.698,4.25676 0.6994,1.7387 1.0691,3.65724 1.1091,5.75563 l 0,13.39981 c 0,1.73868 0.2498,3.07766 0.7494,4.01695 m -14.9586,-2.15836 c 2.2982,0 4.5266,-0.76941 6.6849,-2.30825 2.1584,-1.53882 3.7771,-3.29748 4.8563,-5.27599 l 0,-5.75562 c -0.9393,0.02 -1.7287,0.04 -2.3682,0.06 -0.6195,0.02 -1.4789,0.07 -2.578,0.14989 -1.0792,0.06 -1.9985,0.13991 -2.7579,0.23982 -0.7594,0.0799 -1.6488,0.21984 -2.668,0.41968 -0.9992,0.19986 -1.8486,0.42968 -2.548,0.68947 -0.6995,0.23983 -1.429,0.55959 -2.1884,0.95927 -0.7394,0.37973 -1.339,0.8094 -1.7986,1.28902 -0.4597,0.45967 -0.8394,1.01924 -1.1391,1.67873 -0.2798,0.65951 -0.4197,1.37896 -0.4197,2.15836 0,1.43891 0.5995,2.74791 1.7986,3.92701 1.1991,1.17911 2.9078,1.76866 5.1261,1.76866"
         id="path4579-7"
         style="fill:#000000;stroke:#000000;stroke-opacity:1" />
      <path
         inkscape:connector-curvature="0"
         d="m -1252.6484,280.11891 2.8778,0 c 0.3797,1.31903 0.5696,2.65801 0.5696,4.01695 l 0,3.77713 c 0.7594,-2.09838 2.2582,-3.99694 4.4966,-5.69567 2.2382,-1.71867 4.4965,-2.57801 6.7748,-2.57804 2.5381,3e-5 4.8663,0.71948 6.9847,2.15836 2.1184,1.41894 3.7771,3.32749 4.9762,5.72564 1.2191,2.3982 1.8286,4.98623 1.8286,7.7641 0,2.79789 -0.6095,5.4059 -1.8286,7.82406 -1.1991,2.39818 -2.8578,4.30673 -4.9762,5.72564 -2.1184,1.41893 -4.4466,2.12839 -6.9847,2.12839 -2.3183,0 -4.5965,-0.81938 -6.8348,-2.45814 -2.2183,-1.65873 -3.6972,-3.58726 -4.4366,-5.7856 l 0,21.22387 -2.698,0 0,-39.80974 c 0,-1.71867 -0.2498,-3.05765 -0.7494,-4.01695 m 6.7748,5.99544 c -2.2183,2.51811 -3.3274,5.57579 -3.3274,9.17303 0,3.59728 1.1091,6.66495 3.3274,9.20301 2.2183,2.53807 4.8663,3.80711 7.944,3.8071 3.0377,1e-5 5.6757,-1.26903 7.914,-3.8071 2.2383,-2.55805 3.3574,-5.62571 3.3574,-9.20301 0,-3.59724 -1.1191,-6.65492 -3.3574,-9.17303 -2.2383,-2.51805 -4.8763,-3.7771 -7.914,-3.77712 -3.0777,2e-5 -5.7257,1.25907 -7.944,3.77712"
         id="path4581-2"
         style="fill:#000000;stroke:#000000;stroke-opacity:1" />
      <path
         inkscape:connector-curvature="0"
         d="m -1216.1961,280.11891 2.8778,0 c 0.3797,1.31903 0.5696,2.65801 0.5696,4.01695 l 0,3.77713 c 0.7594,-2.09838 2.2582,-3.99694 4.4965,-5.69567 2.2383,-1.71867 4.4966,-2.57801 6.7749,-2.57804 2.538,3e-5 4.8663,0.71948 6.9847,2.15836 2.1184,1.41894 3.7771,3.32749 4.9762,5.72564 1.219,2.3982 1.8286,4.98623 1.8286,7.7641 0,2.79789 -0.6096,5.4059 -1.8286,7.82406 -1.1991,2.39818 -2.8578,4.30673 -4.9762,5.72564 -2.1184,1.41893 -4.4467,2.12839 -6.9847,2.12839 -2.3183,0 -4.5965,-0.81938 -6.8348,-2.45814 -2.2183,-1.65873 -3.6972,-3.58726 -4.4366,-5.7856 l 0,21.22387 -2.698,0 0,-39.80974 c 0,-1.71867 -0.2498,-3.05765 -0.7494,-4.01695 m 6.7748,5.99544 c -2.2183,2.51811 -3.3274,5.57579 -3.3274,9.17303 0,3.59728 1.1091,6.66495 3.3274,9.20301 2.2183,2.53807 4.8663,3.80711 7.944,3.8071 3.0377,1e-5 5.6757,-1.26903 7.914,-3.8071 2.2383,-2.55805 3.3574,-5.62571 3.3574,-9.20301 0,-3.59724 -1.1191,-6.65492 -3.3574,-9.17303 -2.2383,-2.51805 -4.8763,-3.7771 -7.914,-3.77712 -3.0777,2e-5 -5.7257,1.25907 -7.944,3.77712"
         id="path4583-6"
         style="fill:#000000;stroke:#000000;stroke-opacity:1" />
      <path
         inkscape:connector-curvature="0"
         d="m -1180.0736,269.23186 c 0,-0.65946 0.2299,-1.22903 0.6895,-1.7087 0.4796,-0.4796 1.0592,-0.71941 1.7387,-0.71945 0.6595,4e-5 1.219,0.23985 1.6787,0.71945 0.4796,0.47967 0.7195,1.04924 0.7195,1.7087 0,0.67952 -0.2299,1.25908 -0.6895,1.73868 -0.4597,0.45968 -1.0292,0.68951 -1.7087,0.68947 -0.6795,4e-5 -1.2591,-0.22979 -1.7387,-0.68947 -0.4596,-0.4796 -0.6895,-1.05916 -0.6895,-1.73868 m 3.7772,41.28395 -2.698,0 0,-30.3969 2.698,0 0,30.3969"
         id="path4585-0"
         sodipodi:nodetypes="ccccsccccccccc"
         style="fill:#000000;stroke:#000000;stroke-opacity:1" />
      <path
         inkscape:connector-curvature="0"
         d="m -1168.952,280.11891 2.9377,0 8.1838,11.96091 8.2737,-11.96091 3.1476,0 -9.8025,14.26916 11.0016,16.12774 -3.1176,0 -9.3529,-13.75954 -9.4128,13.75954 -3.1476,0 11.0016,-16.12774 -9.7126,-14.26916"
         id="path4587-1"
         style="fill:#000000;stroke:#000000;stroke-opacity:1" />
    </g>
    <path
       sodipodi:nodetypes="cccccccccccccccccc"
       id="path4162"
       d="m 131.29755,-309.43061 c -7.1477,-2.60931 -9.205,-10.08754 -8.9168,-16.93683 0.1073,-5.88619 -9.5642,-11.12752 -12.3321,-4.6685 0.1193,6.39197 -4.1615,12.19194 -11.1774,10.19191 -5.2363,-0.40267 -11.764299,-6.03494 -9.6905,-11.66971 2.6764,-6.33121 12.0115,-3.95455 14.4405,-10.43488 2.0421,-5.0209 0.2516,-12.03901 -5.5421,-13.48447 -6.9028,-0.9111 -13.220299,-7.2067 -12.078099,-14.47311 1.1719,-8.99455 14.728199,-11.97266 19.783699,-4.52045 3.9807,4.21058 2.9703,10.49839 5.433,15.23614 6.177,3.49169 12.1022,-3.07011 12.3453,-9.07636 0.8382,-7.73361 2.4344,-16.42069 9.4826,-21.01327 7.9783,-6.84949 22.2381,-7.09606 28.2656,2.41886 5.0513,8.05668 0.8222,18.99628 -7.1527,23.34752 -7.1769,5.12241 -17.8488,4.09052 -23.3518,11.65969 -2.4883,5.32149 -3.4078,13.7587 2.3388,17.38389 6.6055,4.29447 15.9783,5.27693 20.1087,12.70548 1.935,14.59451 -11.1621,17.07128 -21.9567,13.33409 z"
       style="fill:#4d4d4d;fill-opacity:1"
       inkscape:connector-curvature="0"
       inkscape:export-filename="/home/julien/Bureau/i-m-social.png"
       inkscape:export-xdpi="627.63342"
       inkscape:export-ydpi="627.63342" />
    <g
       id="g4164"
       style="font-size:61.39333725px;font-style:normal;font-variant:normal;font-weight:normal;font-stretch:normal;line-height:125%;letter-spacing:0px;word-spacing:0px;fill:#4d4d4d;fill-opacity:1;stroke:#4d4d4d;stroke-width:2.9000001;stroke-miterlimit:4;stroke-opacity:1;font-family:Sawasdee;-inkscape-font-specification:Sawasdee"
       transform="translate(1470.3768,-643.35892)">
      <path
         style="fill:#4d4d4d;stroke:#4d4d4d;stroke-opacity:1"
         sodipodi:nodetypes="ccsccccccccccscccc"
         id="path4166"
         d="m -1296.1453,280.11891 2.6979,0 0,30.33694 c 0,2.57804 -0.8394,4.78636 -2.5181,6.62497 -1.6787,1.85858 -3.7172,2.78787 -6.1153,2.78788 l 0,-2.30825 c 1.6187,0 3.0077,-0.70946 4.1668,-2.12838 1.1791,-1.39894 1.7686,-3.05768 1.7687,-4.97622 l 0,-30.33694 m -1.1991,-10.85436 c 0,-0.65946 0.2298,-1.22903 0.6894,-1.7087 0.4797,-0.4796 1.0492,-0.71941 1.7087,-0.71945 0.6595,4e-5 1.2291,0.23985 1.7087,0.71945 0.4797,0.47967 0.7195,1.04924 0.7195,1.7087 0,0.67952 -0.2398,1.25908 -0.7195,1.73868 -0.4796,0.45968 -1.0492,0.68951 -1.7087,0.68947 -0.6595,4e-5 -1.229,-0.22979 -1.7087,-0.68947 -0.4596,-0.4796 -0.6894,-1.05916 -0.6894,-1.73868"
         inkscape:connector-curvature="0" />
      <path
         style="fill:#4d4d4d;stroke:#4d4d4d;stroke-opacity:1"
         id="path4168"
         d="m -1261.132,310.51581 -2.8778,0 c -0.3597,-1.13913 -0.5396,-2.47812 -0.5396,-4.01695 l 0,-2.3682 c -1.4389,1.99849 -3.1676,3.64723 -5.186,4.94624 -1.9985,1.29901 -4.1169,1.94852 -6.3552,1.94852 -1.6188,0 -3.0677,-0.24981 -4.3467,-0.74943 -1.259,-0.5196 -2.2583,-1.19909 -2.9977,-2.03845 -0.7394,-0.83936 -1.299,-1.72868 -1.6787,-2.66797 -0.3797,-0.95927 -0.5696,-1.92853 -0.5696,-2.90779 0,-1.01922 0.1499,-1.9585 0.4497,-2.81786 0.3197,-0.85934 0.7194,-1.58878 1.199,-2.18834 0.4997,-0.61951 1.1492,-1.16909 1.9486,-1.64874 0.8193,-0.49961 1.5987,-0.89931 2.3382,-1.19909 0.7594,-0.31974 1.6987,-0.58954 2.8178,-0.80939 1.1192,-0.2398 2.0884,-0.40967 2.9078,-0.50961 0.8194,-0.11989 1.8386,-0.20982 3.0577,-0.2698 1.2191,-0.0599 2.1783,-0.0899 2.8778,-0.0899 0.7195,-0.02 1.6288,-0.03 2.728,-0.03 l 0.8093,0 c -0.1,-3.29748 -1.0792,-5.92548 -2.9377,-7.88401 -1.8387,-1.95849 -3.967,-2.93774 -6.3852,-2.93777 -1.4189,3e-5 -2.8079,0.36975 -4.1668,1.10916 -1.339,0.73946 -2.5081,1.81864 -3.5073,3.23754 l -2.1284,-1.40893 c 1.219,-1.87855 2.6879,-3.28747 4.4066,-4.22679 1.7187,-0.93925 3.5173,-1.4089 5.3959,-1.40893 1.5189,3e-5 2.9777,0.3098 4.3767,0.9293 1.4189,0.59957 2.6879,1.45892 3.8071,2.57804 1.1191,1.09919 2.0184,2.51811 2.698,4.25676 0.6994,1.7387 1.0691,3.65724 1.1091,5.75563 l 0,13.39981 c 0,1.73868 0.2498,3.07766 0.7494,4.01695 m -14.9586,-2.15836 c 2.2982,0 4.5266,-0.76941 6.6849,-2.30825 2.1584,-1.53882 3.7771,-3.29748 4.8563,-5.27599 l 0,-5.75562 c -0.9393,0.02 -1.7287,0.04 -2.3682,0.06 -0.6195,0.02 -1.4789,0.07 -2.578,0.14989 -1.0792,0.06 -1.9985,0.13991 -2.7579,0.23982 -0.7594,0.0799 -1.6488,0.21984 -2.668,0.41968 -0.9992,0.19986 -1.8486,0.42968 -2.548,0.68947 -0.6995,0.23983 -1.429,0.55959 -2.1884,0.95927 -0.7394,0.37973 -1.339,0.8094 -1.7986,1.28902 -0.4597,0.45967 -0.8394,1.01924 -1.1391,1.67873 -0.2798,0.65951 -0.4197,1.37896 -0.4197,2.15836 0,1.43891 0.5995,2.74791 1.7986,3.92701 1.1991,1.17911 2.9078,1.76866 5.1261,1.76866"
         inkscape:connector-curvature="0" />
      <path
         style="fill:#4d4d4d;stroke:#4d4d4d;stroke-opacity:1"
         id="path4170"
         d="m -1252.6484,280.11891 2.8778,0 c 0.3797,1.31903 0.5696,2.65801 0.5696,4.01695 l 0,3.77713 c 0.7594,-2.09838 2.2582,-3.99694 4.4966,-5.69567 2.2382,-1.71867 4.4965,-2.57801 6.7748,-2.57804 2.5381,3e-5 4.8663,0.71948 6.9847,2.15836 2.1184,1.41894 3.7771,3.32749 4.9762,5.72564 1.2191,2.3982 1.8286,4.98623 1.8286,7.7641 0,2.79789 -0.6095,5.4059 -1.8286,7.82406 -1.1991,2.39818 -2.8578,4.30673 -4.9762,5.72564 -2.1184,1.41893 -4.4466,2.12839 -6.9847,2.12839 -2.3183,0 -4.5965,-0.81938 -6.8348,-2.45814 -2.2183,-1.65873 -3.6972,-3.58726 -4.4366,-5.7856 l 0,21.22387 -2.698,0 0,-39.80974 c 0,-1.71867 -0.2498,-3.05765 -0.7494,-4.01695 m 6.7748,5.99544 c -2.2183,2.51811 -3.3274,5.57579 -3.3274,9.17303 0,3.59728 1.1091,6.66495 3.3274,9.20301 2.2183,2.53807 4.8663,3.80711 7.944,3.8071 3.0377,1e-5 5.6757,-1.26903 7.914,-3.8071 2.2383,-2.55805 3.3574,-5.62571 3.3574,-9.20301 0,-3.59724 -1.1191,-6.65492 -3.3574,-9.17303 -2.2383,-2.51805 -4.8763,-3.7771 -7.914,-3.77712 -3.0777,2e-5 -5.7257,1.25907 -7.944,3.77712"
         inkscape:connector-curvature="0" />
      <path
         style="fill:#4d4d4d;stroke:#4d4d4d;stroke-opacity:1"
         id="path4172"
         d="m -1216.1961,280.11891 2.8778,0 c 0.3797,1.31903 0.5696,2.65801 0.5696,4.01695 l 0,3.77713 c 0.7594,-2.09838 2.2582,-3.99694 4.4965,-5.69567 2.2383,-1.71867 4.4966,-2.57801 6.7749,-2.57804 2.538,3e-5 4.8663,0.71948 6.9847,2.15836 2.1184,1.41894 3.7771,3.32749 4.9762,5.72564 1.219,2.3982 1.8286,4.98623 1.8286,7.7641 0,2.79789 -0.6096,5.4059 -1.8286,7.82406 -1.1991,2.39818 -2.8578,4.30673 -4.9762,5.72564 -2.1184,1.41893 -4.4467,2.12839 -6.9847,2.12839 -2.3183,0 -4.5965,-0.81938 -6.8348,-2.45814 -2.2183,-1.65873 -3.6972,-3.58726 -4.4366,-5.7856 l 0,21.22387 -2.698,0 0,-39.80974 c 0,-1.71867 -0.2498,-3.05765 -0.7494,-4.01695 m 6.7748,5.99544 c -2.2183,2.51811 -3.3274,5.57579 -3.3274,9.17303 0,3.59728 1.1091,6.66495 3.3274,9.20301 2.2183,2.53807 4.8663,3.80711 7.944,3.8071 3.0377,1e-5 5.6757,-1.26903 7.914,-3.8071 2.2383,-2.55805 3.3574,-5.62571 3.3574,-9.20301 0,-3.59724 -1.1191,-6.65492 -3.3574,-9.17303 -2.2383,-2.51805 -4.8763,-3.7771 -7.914,-3.77712 -3.0777,2e-5 -5.7257,1.25907 -7.944,3.77712"
         inkscape:connector-curvature="0" />
      <path
         style="fill:#4d4d4d;stroke:#4d4d4d;stroke-opacity:1"
         sodipodi:nodetypes="ccccsccccccccc"
         id="path4174"
         d="m -1180.0736,269.23186 c 0,-0.65946 0.2299,-1.22903 0.6895,-1.7087 0.4796,-0.4796 1.0592,-0.71941 1.7387,-0.71945 0.6595,4e-5 1.219,0.23985 1.6787,0.71945 0.4796,0.47967 0.7195,1.04924 0.7195,1.7087 0,0.67952 -0.2299,1.25908 -0.6895,1.73868 -0.4597,0.45968 -1.0292,0.68951 -1.7087,0.68947 -0.6795,4e-5 -1.2591,-0.22979 -1.7387,-0.68947 -0.4596,-0.4796 -0.6895,-1.05916 -0.6895,-1.73868 m 3.7772,41.28395 -2.698,0 0,-30.3969 2.698,0 0,30.3969"
         inkscape:connector-curvature="0" />
      <path
         style="fill:#4d4d4d;stroke:#4d4d4d;stroke-opacity:1"
         id="path4176"
         d="m -1168.952,280.11891 2.9377,0 8.1838,11.96091 8.2737,-11.96091 3.1476,0 -9.8025,14.26916 11.0016,16.12774 -3.1176,0 -9.3529,-13.75954 -9.4128,13.75954 -3.1476,0 11.0016,-16.12774 -9.7126,-14.26916"
         inkscape:connector-curvature="0" />
    </g>
    <path
       inkscape:export-ydpi="627.63342"
       inkscape:export-xdpi="627.63342"
       inkscape:export-filename="/home/julien/Bureau/i-m-social.png"
       inkscape:connector-curvature="0"
       style="fill:#e6e6e6;fill-opacity:1"
       d="m 131.29755,-111.43061 c -7.1477,-2.60931 -9.205,-10.08754 -8.9168,-16.93683 0.1073,-5.88619 -9.5642,-11.12752 -12.3321,-4.6685 0.1193,6.39197 -4.1615,12.19194 -11.1774,10.19191 -5.2363,-0.40267 -11.764299,-6.03494 -9.6905,-11.66971 2.6764,-6.33121 12.0115,-3.95455 14.4405,-10.43488 2.0421,-5.0209 0.2516,-12.03901 -5.5421,-13.48447 -6.9028,-0.9111 -13.220299,-7.2067 -12.078099,-14.47311 1.1719,-8.99455 14.728199,-11.97266 19.783699,-4.52045 3.9807,4.21058 2.9703,10.49839 5.433,15.23614 6.177,3.49169 12.1022,-3.07011 12.3453,-9.07636 0.8382,-7.73361 2.4344,-16.42069 9.4826,-21.01327 7.9783,-6.84949 22.2381,-7.09606 28.2656,2.41886 5.0513,8.05668 0.8222,18.99628 -7.1527,23.34752 -7.1769,5.12241 -17.8488,4.09052 -23.3518,11.65969 -2.4883,5.32149 -3.4078,13.7587 2.3388,17.38389 6.6055,4.29447 15.9783,5.27693 20.1087,12.70548 1.935,14.59451 -11.1621,17.07128 -21.9567,13.33409 z"
       id="path4178"
       sodipodi:nodetypes="cccccccccccccccccc" />
    <g
       transform="translate(1470.3768,-445.35892)"
       style="font-size:61.39333725px;font-style:normal;font-variant:normal;font-weight:normal;font-stretch:normal;line-height:125%;letter-spacing:0px;word-spacing:0px;fill:#e6e6e6;fill-opacity:1;stroke:#e6e6e6;stroke-width:2.9000001;stroke-miterlimit:4;stroke-opacity:1;font-family:Sawasdee;-inkscape-font-specification:Sawasdee"
       id="g4180">
      <path
         inkscape:connector-curvature="0"
         d="m -1296.1453,280.11891 2.6979,0 0,30.33694 c 0,2.57804 -0.8394,4.78636 -2.5181,6.62497 -1.6787,1.85858 -3.7172,2.78787 -6.1153,2.78788 l 0,-2.30825 c 1.6187,0 3.0077,-0.70946 4.1668,-2.12838 1.1791,-1.39894 1.7686,-3.05768 1.7687,-4.97622 l 0,-30.33694 m -1.1991,-10.85436 c 0,-0.65946 0.2298,-1.22903 0.6894,-1.7087 0.4797,-0.4796 1.0492,-0.71941 1.7087,-0.71945 0.6595,4e-5 1.2291,0.23985 1.7087,0.71945 0.4797,0.47967 0.7195,1.04924 0.7195,1.7087 0,0.67952 -0.2398,1.25908 -0.7195,1.73868 -0.4796,0.45968 -1.0492,0.68951 -1.7087,0.68947 -0.6595,4e-5 -1.229,-0.22979 -1.7087,-0.68947 -0.4596,-0.4796 -0.6894,-1.05916 -0.6894,-1.73868"
         id="path4182"
         sodipodi:nodetypes="ccsccccccccccscccc"
         style="fill:#e6e6e6;stroke:#e6e6e6;stroke-opacity:1" />
      <path
         inkscape:connector-curvature="0"
         d="m -1261.132,310.51581 -2.8778,0 c -0.3597,-1.13913 -0.5396,-2.47812 -0.5396,-4.01695 l 0,-2.3682 c -1.4389,1.99849 -3.1676,3.64723 -5.186,4.94624 -1.9985,1.29901 -4.1169,1.94852 -6.3552,1.94852 -1.6188,0 -3.0677,-0.24981 -4.3467,-0.74943 -1.259,-0.5196 -2.2583,-1.19909 -2.9977,-2.03845 -0.7394,-0.83936 -1.299,-1.72868 -1.6787,-2.66797 -0.3797,-0.95927 -0.5696,-1.92853 -0.5696,-2.90779 0,-1.01922 0.1499,-1.9585 0.4497,-2.81786 0.3197,-0.85934 0.7194,-1.58878 1.199,-2.18834 0.4997,-0.61951 1.1492,-1.16909 1.9486,-1.64874 0.8193,-0.49961 1.5987,-0.89931 2.3382,-1.19909 0.7594,-0.31974 1.6987,-0.58954 2.8178,-0.80939 1.1192,-0.2398 2.0884,-0.40967 2.9078,-0.50961 0.8194,-0.11989 1.8386,-0.20982 3.0577,-0.2698 1.2191,-0.0599 2.1783,-0.0899 2.8778,-0.0899 0.7195,-0.02 1.6288,-0.03 2.728,-0.03 l 0.8093,0 c -0.1,-3.29748 -1.0792,-5.92548 -2.9377,-7.88401 -1.8387,-1.95849 -3.967,-2.93774 -6.3852,-2.93777 -1.4189,3e-5 -2.8079,0.36975 -4.1668,1.10916 -1.339,0.73946 -2.5081,1.81864 -3.5073,3.23754 l -2.1284,-1.40893 c 1.219,-1.87855 2.6879,-3.28747 4.4066,-4.22679 1.7187,-0.93925 3.5173,-1.4089 5.3959,-1.40893 1.5189,3e-5 2.9777,0.3098 4.3767,0.9293 1.4189,0.59957 2.6879,1.45892 3.8071,2.57804 1.1191,1.09919 2.0184,2.51811 2.698,4.25676 0.6994,1.7387 1.0691,3.65724 1.1091,5.75563 l 0,13.39981 c 0,1.73868 0.2498,3.07766 0.7494,4.01695 m -14.9586,-2.15836 c 2.2982,0 4.5266,-0.76941 6.6849,-2.30825 2.1584,-1.53882 3.7771,-3.29748 4.8563,-5.27599 l 0,-5.75562 c -0.9393,0.02 -1.7287,0.04 -2.3682,0.06 -0.6195,0.02 -1.4789,0.07 -2.578,0.14989 -1.0792,0.06 -1.9985,0.13991 -2.7579,0.23982 -0.7594,0.0799 -1.6488,0.21984 -2.668,0.41968 -0.9992,0.19986 -1.8486,0.42968 -2.548,0.68947 -0.6995,0.23983 -1.429,0.55959 -2.1884,0.95927 -0.7394,0.37973 -1.339,0.8094 -1.7986,1.28902 -0.4597,0.45967 -0.8394,1.01924 -1.1391,1.67873 -0.2798,0.65951 -0.4197,1.37896 -0.4197,2.15836 0,1.43891 0.5995,2.74791 1.7986,3.92701 1.1991,1.17911 2.9078,1.76866 5.1261,1.76866"
         id="path4184"
         style="fill:#e6e6e6;stroke:#e6e6e6;stroke-opacity:1" />
      <path
         inkscape:connector-curvature="0"
         d="m -1252.6484,280.11891 2.8778,0 c 0.3797,1.31903 0.5696,2.65801 0.5696,4.01695 l 0,3.77713 c 0.7594,-2.09838 2.2582,-3.99694 4.4966,-5.69567 2.2382,-1.71867 4.4965,-2.57801 6.7748,-2.57804 2.5381,3e-5 4.8663,0.71948 6.9847,2.15836 2.1184,1.41894 3.7771,3.32749 4.9762,5.72564 1.2191,2.3982 1.8286,4.98623 1.8286,7.7641 0,2.79789 -0.6095,5.4059 -1.8286,7.82406 -1.1991,2.39818 -2.8578,4.30673 -4.9762,5.72564 -2.1184,1.41893 -4.4466,2.12839 -6.9847,2.12839 -2.3183,0 -4.5965,-0.81938 -6.8348,-2.45814 -2.2183,-1.65873 -3.6972,-3.58726 -4.4366,-5.7856 l 0,21.22387 -2.698,0 0,-39.80974 c 0,-1.71867 -0.2498,-3.05765 -0.7494,-4.01695 m 6.7748,5.99544 c -2.2183,2.51811 -3.3274,5.57579 -3.3274,9.17303 0,3.59728 1.1091,6.66495 3.3274,9.20301 2.2183,2.53807 4.8663,3.80711 7.944,3.8071 3.0377,1e-5 5.6757,-1.26903 7.914,-3.8071 2.2383,-2.55805 3.3574,-5.62571 3.3574,-9.20301 0,-3.59724 -1.1191,-6.65492 -3.3574,-9.17303 -2.2383,-2.51805 -4.8763,-3.7771 -7.914,-3.77712 -3.0777,2e-5 -5.7257,1.25907 -7.944,3.77712"
         id="path4186"
         style="fill:#e6e6e6;stroke:#e6e6e6;stroke-opacity:1" />
      <path
         inkscape:connector-curvature="0"
         d="m -1216.1961,280.11891 2.8778,0 c 0.3797,1.31903 0.5696,2.65801 0.5696,4.01695 l 0,3.77713 c 0.7594,-2.09838 2.2582,-3.99694 4.4965,-5.69567 2.2383,-1.71867 4.4966,-2.57801 6.7749,-2.57804 2.538,3e-5 4.8663,0.71948 6.9847,2.15836 2.1184,1.41894 3.7771,3.32749 4.9762,5.72564 1.219,2.3982 1.8286,4.98623 1.8286,7.7641 0,2.79789 -0.6096,5.4059 -1.8286,7.82406 -1.1991,2.39818 -2.8578,4.30673 -4.9762,5.72564 -2.1184,1.41893 -4.4467,2.12839 -6.9847,2.12839 -2.3183,0 -4.5965,-0.81938 -6.8348,-2.45814 -2.2183,-1.65873 -3.6972,-3.58726 -4.4366,-5.7856 l 0,21.22387 -2.698,0 0,-39.80974 c 0,-1.71867 -0.2498,-3.05765 -0.7494,-4.01695 m 6.7748,5.99544 c -2.2183,2.51811 -3.3274,5.57579 -3.3274,9.17303 0,3.59728 1.1091,6.66495 3.3274,9.20301 2.2183,2.53807 4.8663,3.80711 7.944,3.8071 3.0377,1e-5 5.6757,-1.26903 7.914,-3.8071 2.2383,-2.55805 3.3574,-5.62571 3.3574,-9.20301 0,-3.59724 -1.1191,-6.65492 -3.3574,-9.17303 -2.2383,-2.51805 -4.8763,-3.7771 -7.914,-3.77712 -3.0777,2e-5 -5.7257,1.25907 -7.944,3.77712"
         id="path4188"
         style="fill:#e6e6e6;stroke:#e6e6e6;stroke-opacity:1" />
      <path
         inkscape:connector-curvature="0"
         d="m -1180.0736,269.23186 c 0,-0.65946 0.2299,-1.22903 0.6895,-1.7087 0.4796,-0.4796 1.0592,-0.71941 1.7387,-0.71945 0.6595,4e-5 1.219,0.23985 1.6787,0.71945 0.4796,0.47967 0.7195,1.04924 0.7195,1.7087 0,0.67952 -0.2299,1.25908 -0.6895,1.73868 -0.4597,0.45968 -1.0292,0.68951 -1.7087,0.68947 -0.6795,4e-5 -1.2591,-0.22979 -1.7387,-0.68947 -0.4596,-0.4796 -0.6895,-1.05916 -0.6895,-1.73868 m 3.7772,41.28395 -2.698,0 0,-30.3969 2.698,0 0,30.3969"
         id="path4190"
         sodipodi:nodetypes="ccccsccccccccc"
         style="fill:#e6e6e6;stroke:#e6e6e6;stroke-opacity:1" />
      <path
         inkscape:connector-curvature="0"
         d="m -1168.952,280.11891 2.9377,0 8.1838,11.96091 8.2737,-11.96091 3.1476,0 -9.8025,14.26916 11.0016,16.12774 -3.1176,0 -9.3529,-13.75954 -9.4128,13.75954 -3.1476,0 11.0016,-16.12774 -9.7126,-14.26916"
         id="path4192"
         style="fill:#e6e6e6;stroke:#e6e6e6;stroke-opacity:1" />
    </g>
    <path
       sodipodi:nodetypes="cccccccccccccccccc"
       id="path4194"
       d="m 131.29755,-209.43061 c -7.1477,-2.60931 -9.205,-10.08754 -8.9168,-16.93683 0.1073,-5.88619 -9.5642,-11.12752 -12.3321,-4.6685 0.1193,6.39197 -4.1615,12.19194 -11.1774,10.19191 -5.2363,-0.40267 -11.764299,-6.03494 -9.6905,-11.66971 2.6764,-6.33121 12.0115,-3.95455 14.4405,-10.43488 2.0421,-5.0209 0.2516,-12.03901 -5.5421,-13.48447 -6.9028,-0.9111 -13.220299,-7.2067 -12.078099,-14.47311 1.1719,-8.99455 14.728199,-11.97266 19.783699,-4.52045 3.9807,4.21058 2.9703,10.49839 5.433,15.23614 6.177,3.49169 12.1022,-3.07011 12.3453,-9.07636 0.8382,-7.73361 2.4344,-16.42069 9.4826,-21.01327 7.9783,-6.84949 22.2381,-7.09606 28.2656,2.41886 5.0513,8.05668 0.8222,18.99628 -7.1527,23.34752 -7.1769,5.12241 -17.8488,4.09052 -23.3518,11.65969 -2.4883,5.32149 -3.4078,13.7587 2.3388,17.38389 6.6055,4.29447 15.9783,5.27693 20.1087,12.70548 1.935,14.59451 -11.1621,17.07128 -21.9567,13.33409 z"
       style="fill:#808080;fill-opacity:1"
       inkscape:connector-curvature="0"
       inkscape:export-filename="/home/julien/Bureau/i-m-social.png"
       inkscape:export-xdpi="627.63342"
       inkscape:export-ydpi="627.63342" />
    <g
       id="g4196"
       style="font-size:61.39333725px;font-style:normal;font-variant:normal;font-weight:normal;font-stretch:normal;line-height:125%;letter-spacing:0px;word-spacing:0px;fill:#808080;fill-opacity:1;stroke:#808080;stroke-width:2.9000001;stroke-miterlimit:4;stroke-opacity:1;font-family:Sawasdee;-inkscape-font-specification:Sawasdee"
       transform="translate(1470.3768,-543.35892)">
      <path
         style="fill:#808080;stroke:#808080;stroke-opacity:1"
         sodipodi:nodetypes="ccsccccccccccscccc"
         id="path4198"
         d="m -1296.1453,280.11891 2.6979,0 0,30.33694 c 0,2.57804 -0.8394,4.78636 -2.5181,6.62497 -1.6787,1.85858 -3.7172,2.78787 -6.1153,2.78788 l 0,-2.30825 c 1.6187,0 3.0077,-0.70946 4.1668,-2.12838 1.1791,-1.39894 1.7686,-3.05768 1.7687,-4.97622 l 0,-30.33694 m -1.1991,-10.85436 c 0,-0.65946 0.2298,-1.22903 0.6894,-1.7087 0.4797,-0.4796 1.0492,-0.71941 1.7087,-0.71945 0.6595,4e-5 1.2291,0.23985 1.7087,0.71945 0.4797,0.47967 0.7195,1.04924 0.7195,1.7087 0,0.67952 -0.2398,1.25908 -0.7195,1.73868 -0.4796,0.45968 -1.0492,0.68951 -1.7087,0.68947 -0.6595,4e-5 -1.229,-0.22979 -1.7087,-0.68947 -0.4596,-0.4796 -0.6894,-1.05916 -0.6894,-1.73868"
         inkscape:connector-curvature="0" />
      <path
         style="fill:#808080;stroke:#808080;stroke-opacity:1"
         id="path4200"
         d="m -1261.132,310.51581 -2.8778,0 c -0.3597,-1.13913 -0.5396,-2.47812 -0.5396,-4.01695 l 0,-2.3682 c -1.4389,1.99849 -3.1676,3.64723 -5.186,4.94624 -1.9985,1.29901 -4.1169,1.94852 -6.3552,1.94852 -1.6188,0 -3.0677,-0.24981 -4.3467,-0.74943 -1.259,-0.5196 -2.2583,-1.19909 -2.9977,-2.03845 -0.7394,-0.83936 -1.299,-1.72868 -1.6787,-2.66797 -0.3797,-0.95927 -0.5696,-1.92853 -0.5696,-2.90779 0,-1.01922 0.1499,-1.9585 0.4497,-2.81786 0.3197,-0.85934 0.7194,-1.58878 1.199,-2.18834 0.4997,-0.61951 1.1492,-1.16909 1.9486,-1.64874 0.8193,-0.49961 1.5987,-0.89931 2.3382,-1.19909 0.7594,-0.31974 1.6987,-0.58954 2.8178,-0.80939 1.1192,-0.2398 2.0884,-0.40967 2.9078,-0.50961 0.8194,-0.11989 1.8386,-0.20982 3.0577,-0.2698 1.2191,-0.0599 2.1783,-0.0899 2.8778,-0.0899 0.7195,-0.02 1.6288,-0.03 2.728,-0.03 l 0.8093,0 c -0.1,-3.29748 -1.0792,-5.92548 -2.9377,-7.88401 -1.8387,-1.95849 -3.967,-2.93774 -6.3852,-2.93777 -1.4189,3e-5 -2.8079,0.36975 -4.1668,1.10916 -1.339,0.73946 -2.5081,1.81864 -3.5073,3.23754 l -2.1284,-1.40893 c 1.219,-1.87855 2.6879,-3.28747 4.4066,-4.22679 1.7187,-0.93925 3.5173,-1.4089 5.3959,-1.40893 1.5189,3e-5 2.9777,0.3098 4.3767,0.9293 1.4189,0.59957 2.6879,1.45892 3.8071,2.57804 1.1191,1.09919 2.0184,2.51811 2.698,4.25676 0.6994,1.7387 1.0691,3.65724 1.1091,5.75563 l 0,13.39981 c 0,1.73868 0.2498,3.07766 0.7494,4.01695 m -14.9586,-2.15836 c 2.2982,0 4.5266,-0.76941 6.6849,-2.30825 2.1584,-1.53882 3.7771,-3.29748 4.8563,-5.27599 l 0,-5.75562 c -0.9393,0.02 -1.7287,0.04 -2.3682,0.06 -0.6195,0.02 -1.4789,0.07 -2.578,0.14989 -1.0792,0.06 -1.9985,0.13991 -2.7579,0.23982 -0.7594,0.0799 -1.6488,0.21984 -2.668,0.41968 -0.9992,0.19986 -1.8486,0.42968 -2.548,0.68947 -0.6995,0.23983 -1.429,0.55959 -2.1884,0.95927 -0.7394,0.37973 -1.339,0.8094 -1.7986,1.28902 -0.4597,0.45967 -0.8394,1.01924 -1.1391,1.67873 -0.2798,0.65951 -0.4197,1.37896 -0.4197,2.15836 0,1.43891 0.5995,2.74791 1.7986,3.92701 1.1991,1.17911 2.9078,1.76866 5.1261,1.76866"
         inkscape:connector-curvature="0" />
      <path
         style="fill:#808080;stroke:#808080;stroke-opacity:1"
         id="path4202"
         d="m -1252.6484,280.11891 2.8778,0 c 0.3797,1.31903 0.5696,2.65801 0.5696,4.01695 l 0,3.77713 c 0.7594,-2.09838 2.2582,-3.99694 4.4966,-5.69567 2.2382,-1.71867 4.4965,-2.57801 6.7748,-2.57804 2.5381,3e-5 4.8663,0.71948 6.9847,2.15836 2.1184,1.41894 3.7771,3.32749 4.9762,5.72564 1.2191,2.3982 1.8286,4.98623 1.8286,7.7641 0,2.79789 -0.6095,5.4059 -1.8286,7.82406 -1.1991,2.39818 -2.8578,4.30673 -4.9762,5.72564 -2.1184,1.41893 -4.4466,2.12839 -6.9847,2.12839 -2.3183,0 -4.5965,-0.81938 -6.8348,-2.45814 -2.2183,-1.65873 -3.6972,-3.58726 -4.4366,-5.7856 l 0,21.22387 -2.698,0 0,-39.80974 c 0,-1.71867 -0.2498,-3.05765 -0.7494,-4.01695 m 6.7748,5.99544 c -2.2183,2.51811 -3.3274,5.57579 -3.3274,9.17303 0,3.59728 1.1091,6.66495 3.3274,9.20301 2.2183,2.53807 4.8663,3.80711 7.944,3.8071 3.0377,1e-5 5.6757,-1.26903 7.914,-3.8071 2.2383,-2.55805 3.3574,-5.62571 3.3574,-9.20301 0,-3.59724 -1.1191,-6.65492 -3.3574,-9.17303 -2.2383,-2.51805 -4.8763,-3.7771 -7.914,-3.77712 -3.0777,2e-5 -5.7257,1.25907 -7.944,3.77712"
         inkscape:connector-curvature="0" />
      <path
         style="fill:#808080;stroke:#808080;stroke-opacity:1"
         id="path4204"
         d="m -1216.1961,280.11891 2.8778,0 c 0.3797,1.31903 0.5696,2.65801 0.5696,4.01695 l 0,3.77713 c 0.7594,-2.09838 2.2582,-3.99694 4.4965,-5.69567 2.2383,-1.71867 4.4966,-2.57801 6.7749,-2.57804 2.538,3e-5 4.8663,0.71948 6.9847,2.15836 2.1184,1.41894 3.7771,3.32749 4.9762,5.72564 1.219,2.3982 1.8286,4.98623 1.8286,7.7641 0,2.79789 -0.6096,5.4059 -1.8286,7.82406 -1.1991,2.39818 -2.8578,4.30673 -4.9762,5.72564 -2.1184,1.41893 -4.4467,2.12839 -6.9847,2.12839 -2.3183,0 -4.5965,-0.81938 -6.8348,-2.45814 -2.2183,-1.65873 -3.6972,-3.58726 -4.4366,-5.7856 l 0,21.22387 -2.698,0 0,-39.80974 c 0,-1.71867 -0.2498,-3.05765 -0.7494,-4.01695 m 6.7748,5.99544 c -2.2183,2.51811 -3.3274,5.57579 -3.3274,9.17303 0,3.59728 1.1091,6.66495 3.3274,9.20301 2.2183,2.53807 4.8663,3.80711 7.944,3.8071 3.0377,1e-5 5.6757,-1.26903 7.914,-3.8071 2.2383,-2.55805 3.3574,-5.62571 3.3574,-9.20301 0,-3.59724 -1.1191,-6.65492 -3.3574,-9.17303 -2.2383,-2.51805 -4.8763,-3.7771 -7.914,-3.77712 -3.0777,2e-5 -5.7257,1.25907 -7.944,3.77712"
         inkscape:connector-curvature="0" />
      <path
         style="fill:#808080;stroke:#808080;stroke-opacity:1"
         sodipodi:nodetypes="ccccsccccccccc"
         id="path4206"
         d="m -1180.0736,269.23186 c 0,-0.65946 0.2299,-1.22903 0.6895,-1.7087 0.4796,-0.4796 1.0592,-0.71941 1.7387,-0.71945 0.6595,4e-5 1.219,0.23985 1.6787,0.71945 0.4796,0.47967 0.7195,1.04924 0.7195,1.7087 0,0.67952 -0.2299,1.25908 -0.6895,1.73868 -0.4597,0.45968 -1.0292,0.68951 -1.7087,0.68947 -0.6795,4e-5 -1.2591,-0.22979 -1.7387,-0.68947 -0.4596,-0.4796 -0.6895,-1.05916 -0.6895,-1.73868 m 3.7772,41.28395 -2.698,0 0,-30.3969 2.698,0 0,30.3969"
         inkscape:connector-curvature="0" />
      <path
         style="fill:#808080;stroke:#808080;stroke-opacity:1"
         id="path4208"
         d="m -1168.952,280.11891 2.9377,0 8.1838,11.96091 8.2737,-11.96091 3.1476,0 -9.8025,14.26916 11.0016,16.12774 -3.1176,0 -9.3529,-13.75954 -9.4128,13.75954 -3.1476,0 11.0016,-16.12774 -9.7126,-14.26916"
         inkscape:connector-curvature="0" />
    </g>
    <path
       sodipodi:nodetypes="cccccccccccccccccc"
       id="path4210"
       d="m 131.29755,3.5693901 c -7.1477,-2.60931009 -9.205,-10.0875401 -8.9168,-16.9368301 0.1073,-5.88619 -9.5642,-11.12752 -12.3321,-4.6685 0.1193,6.39197 -4.1615,12.19194 -11.1774,10.19191 -5.2363,-0.40267 -11.764299,-6.03494 -9.6905,-11.66971 2.6764,-6.33121 12.0115,-3.95455 14.4405,-10.43488 2.0421,-5.0209 0.2516,-12.03901 -5.5421,-13.48447 -6.9028,-0.9111 -13.220299,-7.2067 -12.078099,-14.47311 1.1719,-8.99455 14.728199,-11.97266 19.783699,-4.52045 3.9807,4.21058 2.9703,10.49839 5.433,15.23614 6.177,3.49169 12.1022,-3.07011 12.3453,-9.07636 0.8382,-7.73361 2.4344,-16.42069 9.4826,-21.01327 7.9783,-6.84949 22.2381,-7.09606 28.2656,2.41886 5.0513,8.05668 0.8222,18.99628 -7.1527,23.34752 -7.1769,5.12241 -17.8488,4.09052 -23.3518,11.65969 -2.4883,5.32149 -3.4078,13.7587 2.3388,17.38389 6.6055,4.29447 15.9783,5.27693 20.1087,12.70548 1.935,14.5945101 -11.1621,17.0712801 -21.9567,13.3340901 z"
       style="fill:#ffffff;fill-opacity:1"
       inkscape:connector-curvature="0"
       inkscape:export-filename="/home/julien/Bureau/i-m-social.png"
       inkscape:export-xdpi="627.63342"
       inkscape:export-ydpi="627.63342" />
    <g
       id="g4212"
       style="font-size:61.39333725px;font-style:normal;font-variant:normal;font-weight:normal;font-stretch:normal;line-height:125%;letter-spacing:0px;word-spacing:0px;fill:#ffffff;fill-opacity:1;stroke:#ffffff;stroke-width:2.9000001;stroke-miterlimit:4;stroke-opacity:1;font-family:Sawasdee;-inkscape-font-specification:Sawasdee"
       transform="translate(1470.3768,-330.35892)">
      <path
         style="fill:#ffffff;fill-opacity:1;stroke:#ffffff;stroke-opacity:1"
         sodipodi:nodetypes="ccsccccccccccscccc"
         id="path4214"
         d="m -1296.1453,280.11891 2.6979,0 0,30.33694 c 0,2.57804 -0.8394,4.78636 -2.5181,6.62497 -1.6787,1.85858 -3.7172,2.78787 -6.1153,2.78788 l 0,-2.30825 c 1.6187,0 3.0077,-0.70946 4.1668,-2.12838 1.1791,-1.39894 1.7686,-3.05768 1.7687,-4.97622 l 0,-30.33694 m -1.1991,-10.85436 c 0,-0.65946 0.2298,-1.22903 0.6894,-1.7087 0.4797,-0.4796 1.0492,-0.71941 1.7087,-0.71945 0.6595,4e-5 1.2291,0.23985 1.7087,0.71945 0.4797,0.47967 0.7195,1.04924 0.7195,1.7087 0,0.67952 -0.2398,1.25908 -0.7195,1.73868 -0.4796,0.45968 -1.0492,0.68951 -1.7087,0.68947 -0.6595,4e-5 -1.229,-0.22979 -1.7087,-0.68947 -0.4596,-0.4796 -0.6894,-1.05916 -0.6894,-1.73868"
         inkscape:connector-curvature="0" />
      <path
         style="fill:#ffffff;fill-opacity:1;stroke:#ffffff;stroke-opacity:1"
         id="path4216"
         d="m -1261.132,310.51581 -2.8778,0 c -0.3597,-1.13913 -0.5396,-2.47812 -0.5396,-4.01695 l 0,-2.3682 c -1.4389,1.99849 -3.1676,3.64723 -5.186,4.94624 -1.9985,1.29901 -4.1169,1.94852 -6.3552,1.94852 -1.6188,0 -3.0677,-0.24981 -4.3467,-0.74943 -1.259,-0.5196 -2.2583,-1.19909 -2.9977,-2.03845 -0.7394,-0.83936 -1.299,-1.72868 -1.6787,-2.66797 -0.3797,-0.95927 -0.5696,-1.92853 -0.5696,-2.90779 0,-1.01922 0.1499,-1.9585 0.4497,-2.81786 0.3197,-0.85934 0.7194,-1.58878 1.199,-2.18834 0.4997,-0.61951 1.1492,-1.16909 1.9486,-1.64874 0.8193,-0.49961 1.5987,-0.89931 2.3382,-1.19909 0.7594,-0.31974 1.6987,-0.58954 2.8178,-0.80939 1.1192,-0.2398 2.0884,-0.40967 2.9078,-0.50961 0.8194,-0.11989 1.8386,-0.20982 3.0577,-0.2698 1.2191,-0.0599 2.1783,-0.0899 2.8778,-0.0899 0.7195,-0.02 1.6288,-0.03 2.728,-0.03 l 0.8093,0 c -0.1,-3.29748 -1.0792,-5.92548 -2.9377,-7.88401 -1.8387,-1.95849 -3.967,-2.93774 -6.3852,-2.93777 -1.4189,3e-5 -2.8079,0.36975 -4.1668,1.10916 -1.339,0.73946 -2.5081,1.81864 -3.5073,3.23754 l -2.1284,-1.40893 c 1.219,-1.87855 2.6879,-3.28747 4.4066,-4.22679 1.7187,-0.93925 3.5173,-1.4089 5.3959,-1.40893 1.5189,3e-5 2.9777,0.3098 4.3767,0.9293 1.4189,0.59957 2.6879,1.45892 3.8071,2.57804 1.1191,1.09919 2.0184,2.51811 2.698,4.25676 0.6994,1.7387 1.0691,3.65724 1.1091,5.75563 l 0,13.39981 c 0,1.73868 0.2498,3.07766 0.7494,4.01695 m -14.9586,-2.15836 c 2.2982,0 4.5266,-0.76941 6.6849,-2.30825 2.1584,-1.53882 3.7771,-3.29748 4.8563,-5.27599 l 0,-5.75562 c -0.9393,0.02 -1.7287,0.04 -2.3682,0.06 -0.6195,0.02 -1.4789,0.07 -2.578,0.14989 -1.0792,0.06 -1.9985,0.13991 -2.7579,0.23982 -0.7594,0.0799 -1.6488,0.21984 -2.668,0.41968 -0.9992,0.19986 -1.8486,0.42968 -2.548,0.68947 -0.6995,0.23983 -1.429,0.55959 -2.1884,0.95927 -0.7394,0.37973 -1.339,0.8094 -1.7986,1.28902 -0.4597,0.45967 -0.8394,1.01924 -1.1391,1.67873 -0.2798,0.65951 -0.4197,1.37896 -0.4197,2.15836 0,1.43891 0.5995,2.74791 1.7986,3.92701 1.1991,1.17911 2.9078,1.76866 5.1261,1.76866"
         inkscape:connector-curvature="0" />
      <path
         style="fill:#ffffff;fill-opacity:1;stroke:#ffffff;stroke-opacity:1"
         id="path4218"
         d="m -1252.6484,280.11891 2.8778,0 c 0.3797,1.31903 0.5696,2.65801 0.5696,4.01695 l 0,3.77713 c 0.7594,-2.09838 2.2582,-3.99694 4.4966,-5.69567 2.2382,-1.71867 4.4965,-2.57801 6.7748,-2.57804 2.5381,3e-5 4.8663,0.71948 6.9847,2.15836 2.1184,1.41894 3.7771,3.32749 4.9762,5.72564 1.2191,2.3982 1.8286,4.98623 1.8286,7.7641 0,2.79789 -0.6095,5.4059 -1.8286,7.82406 -1.1991,2.39818 -2.8578,4.30673 -4.9762,5.72564 -2.1184,1.41893 -4.4466,2.12839 -6.9847,2.12839 -2.3183,0 -4.5965,-0.81938 -6.8348,-2.45814 -2.2183,-1.65873 -3.6972,-3.58726 -4.4366,-5.7856 l 0,21.22387 -2.698,0 0,-39.80974 c 0,-1.71867 -0.2498,-3.05765 -0.7494,-4.01695 m 6.7748,5.99544 c -2.2183,2.51811 -3.3274,5.57579 -3.3274,9.17303 0,3.59728 1.1091,6.66495 3.3274,9.20301 2.2183,2.53807 4.8663,3.80711 7.944,3.8071 3.0377,1e-5 5.6757,-1.26903 7.914,-3.8071 2.2383,-2.55805 3.3574,-5.62571 3.3574,-9.20301 0,-3.59724 -1.1191,-6.65492 -3.3574,-9.17303 -2.2383,-2.51805 -4.8763,-3.7771 -7.914,-3.77712 -3.0777,2e-5 -5.7257,1.25907 -7.944,3.77712"
         inkscape:connector-curvature="0" />
      <path
         style="fill:#ffffff;fill-opacity:1;stroke:#ffffff;stroke-opacity:1"
         id="path4220"
         d="m -1216.1961,280.11891 2.8778,0 c 0.3797,1.31903 0.5696,2.65801 0.5696,4.01695 l 0,3.77713 c 0.7594,-2.09838 2.2582,-3.99694 4.4965,-5.69567 2.2383,-1.71867 4.4966,-2.57801 6.7749,-2.57804 2.538,3e-5 4.8663,0.71948 6.9847,2.15836 2.1184,1.41894 3.7771,3.32749 4.9762,5.72564 1.219,2.3982 1.8286,4.98623 1.8286,7.7641 0,2.79789 -0.6096,5.4059 -1.8286,7.82406 -1.1991,2.39818 -2.8578,4.30673 -4.9762,5.72564 -2.1184,1.41893 -4.4467,2.12839 -6.9847,2.12839 -2.3183,0 -4.5965,-0.81938 -6.8348,-2.45814 -2.2183,-1.65873 -3.6972,-3.58726 -4.4366,-5.7856 l 0,21.22387 -2.698,0 0,-39.80974 c 0,-1.71867 -0.2498,-3.05765 -0.7494,-4.01695 m 6.7748,5.99544 c -2.2183,2.51811 -3.3274,5.57579 -3.3274,9.17303 0,3.59728 1.1091,6.66495 3.3274,9.20301 2.2183,2.53807 4.8663,3.80711 7.944,3.8071 3.0377,1e-5 5.6757,-1.26903 7.914,-3.8071 2.2383,-2.55805 3.3574,-5.62571 3.3574,-9.20301 0,-3.59724 -1.1191,-6.65492 -3.3574,-9.17303 -2.2383,-2.51805 -4.8763,-3.7771 -7.914,-3.77712 -3.0777,2e-5 -5.7257,1.25907 -7.944,3.77712"
         inkscape:connector-curvature="0" />
      <path
         style="fill:#ffffff;fill-opacity:1;stroke:#ffffff;stroke-opacity:1"
         sodipodi:nodetypes="ccccsccccccccc"
         id="path4222"
         d="m -1180.0736,269.23186 c 0,-0.65946 0.2299,-1.22903 0.6895,-1.7087 0.4796,-0.4796 1.0592,-0.71941 1.7387,-0.71945 0.6595,4e-5 1.219,0.23985 1.6787,0.71945 0.4796,0.47967 0.7195,1.04924 0.7195,1.7087 0,0.67952 -0.2299,1.25908 -0.6895,1.73868 -0.4597,0.45968 -1.0292,0.68951 -1.7087,0.68947 -0.6795,4e-5 -1.2591,-0.22979 -1.7387,-0.68947 -0.4596,-0.4796 -0.6895,-1.05916 -0.6895,-1.73868 m 3.7772,41.28395 -2.698,0 0,-30.3969 2.698,0 0,30.3969"
         inkscape:connector-curvature="0" />
      <path
         style="fill:#ffffff;fill-opacity:1;stroke:#ffffff;stroke-opacity:1"
         id="path4224"
         d="m -1168.952,280.11891 2.9377,0 8.1838,11.96091 8.2737,-11.96091 3.1476,0 -9.8025,14.26916 11.0016,16.12774 -3.1176,0 -9.3529,-13.75954 -9.4128,13.75954 -3.1476,0 11.0016,-16.12774 -9.7126,-14.26916"
         inkscape:connector-curvature="0" />
    </g>
  </g>
</svg>
