<?xml version="1.0" encoding="UTF-8" standalone="no"?>

<svg
   xmlns:svg="http://www.w3.org/2000/svg"
   xmlns="http://www.w3.org/2000/svg"
   version="1.1"
   width="162mm"
   height="180mm"
   id="svg2">
  <defs
     id="defs4" />
  <g
     id="layer1">
    <g
       transform="translate(-82,-90)"
       id="g2881">
      <path
         d="m 415.88777,706.65523 c -46.21664,-25.5615 -60.09184,-46.84048 -60.09184,-92.15667 0,-51.95033 -26.24184,-84.53177 -64.47049,-80.04549 -18.9328,2.22185 -24.16638,9.10035 -28.80135,37.85368 -7.95373,49.34147 -19.16584,56.8291 -80.49023,53.75268 -26.46325,-1.32756 -66.60529,-40.32029 -66.60529,-64.6983 0,-23.53644 22.45179,-45.71728 53.80463,-53.15531 39.50346,-9.37165 57.13415,-30.38898 57.13415,-68.10894 0,-38.11343 -17.63502,-58.72719 -58.5768,-68.47103 C 91.35256,353.43416 69.668427,256.0667 134.57958,222.49984 c 38.25517,-19.78252 60.15642,-16.74645 93.38799,12.94596 23.31737,20.83407 30.73136,36.09212 34.81422,71.64796 4.60012,40.06041 7.88639,45.49046 29.01834,47.94818 40.69223,4.73265 64.6663,-23.89716 72.19648,-86.21698 8.82616,-73.04528 25.31777,-104.22333 72.72967,-137.49839 89.04213,-62.492375 205.66149,-17.95554 205.66149,78.54195 0,64.99223 -48.56692,114.73137 -135.58937,138.86197 -81.74809,22.66806 -106.19332,46.74277 -107.08095,105.45789 -0.56366,37.28535 3.35163,47.85689 24.44368,65.9995 13.81316,11.88158 31.28889,21.60288 38.83496,21.60288 24.40497,0 86.25341,36.57813 101.69397,60.1434 18.52856,28.27817 11.44793,62.41621 -19.32946,93.19361 -17.50347,17.50347 -31.87684,22.25543 -66.64954,22.03493 -24.38342,-0.15462 -52.65391,-4.88298 -62.82329,-10.50747 z"
         id="path2895"
         style="fill:#d9d9d9" />
    </g>
  </g>
</svg>
